<?xml version="1.0" encoding="UTF-8"?>
<svg id="Layer_1" data-name="Layer 1" xmlns="http://www.w3.org/2000/svg" viewBox="0 0 2000 2000">
  <defs>
    <style>
      .cls-1 {
        letter-spacing: .26em;
      }

      .cls-2 {
        letter-spacing: .27em;
      }

      .cls-3 {
        letter-spacing: .26em;
      }

      .cls-4 {
        letter-spacing: .24em;
      }

      .cls-5 {
        letter-spacing: .25em;
      }

      .cls-6 {
        fill: #231f20;
        font-family: NHaasGroteskDSPro-55Rg, 'Neue Haas Grotesk Display Pro';
        font-size: 83.24px;
      }
    </style>
  </defs>
  <g>
    <g>
      <path d="M1166.3,902.85h-21.68c-.06-.03-.11-.06-.17-.11l21.85.11Z"/>
      <path d="M1242.7,908.03c-1.02.2-2.04.42-3.11.62.99-.31,2.04-.51,3.11-.62Z"/>
      <path d="M1166.3,902.85h-21.68c-.06-.03-.11-.06-.17-.11l21.85.11Z"/>
      <path d="M1119.57,1134.86c-7.92-1.82-12.4-13.13-12.42-21.65l.03-134.95-.06-15.93c-.06-10.07-2.69-19.2-6.88-27.3-10.06-19.69-30.56-32.87-53.26-36.52-82.06-13.13-141.59,38.48-126.84,73.43,4.52,10.63,18.15,12.54,28.75,10.21,7.07-1.54,17.92-9.37,19.14-19.04,1.81-14.67-4.66-27.65-12.92-39.27,18.66-15.34,44.01-22.38,68.27-15.51,41.07,11.61,36.61,56.71,35.53,91.12-46.08,23.84-140.24,25.89-148.29,84.9-2.8,20.47,2.37,42.86,21.17,54.78,28.35,17.98,65.41,13.24,92.92-5.3,12.52-8.44,23.37-20.35,33.91-30.98,3.67,11.7,5.75,28.03,15.36,34.91,24.82,17.78,60.78,9.62,74.03-14.81-8.4,8.71-21.83,13.46-28.44,11.92ZM998.13,1127.82c-21.29-.59-35.96-13.83-39.21-33.24-5-29.79,12.78-56.65,41.41-66.64l58.28-20.37v85.23c-12.83,21.15-33.57,35.77-60.48,35.02Z"/>
      <path d="M1302.95,1112.37h55.09l-70.85-100,1.75-2.2,24.25-30.5h-10.71l-20.72,24.9-17.55-24.9-34.8-49.36c-1.86-2.65-2.01-6.42-1.19-10.09h-61.11l6.67,9.38,35.56,50.06,21.68,30.5,20.81,29.29-103.6,133.4c-21.48,27.7-51.96,37.4-87.29,39.46,38.02,11.22,73.84-8.08,96.7-38.08l98.74-127.77,46.57,65.91Z"/>
      <path d="M1144.45,902.74l21.85.11h-21.68c-.06-.03-.11-.06-.17-.11Z"/>
      <path d="M1242.7,908.03c-1.02.2-2.04.42-3.11.62.99-.31,2.04-.51,3.11-.62Z"/>
      <path d="M1239.59,908.65c.99-.31,2.04-.51,3.11-.62-1.02.2-2.04.42-3.11.62Z"/>
      <path d="M1341.31,933.11c-.16.75-.44,1.48-.81,2.16-.17.3-.56.45-.89.36-.27-.07-.41-.29-.49-.53-.6,1.08-1.3,2.12-2.13,3.11l-34.52,41.44h10.71l36.98-46.55h-8.87Z"/>
      <path d="M132.64,918.74s-34.62,11.06-34.62,68.12l-24.1,4.56,23.88-48.64,21.89-21.67,14.81-8.4"/>
      <polyline points="98.02 960.91 98.02 1106.62 73.92 1100.41 65.3 1031.21 65.3 991.42"/>
      <path d="M98.02,1091.98s-3.15,26.78,30.41,42.58l-25.03,2.1-21.75-16.97-1.45-14.63"/>
      <polyline points="98.02 966.34 98.02 748.79 98.02 748.13 87.46 751.5 87.19 759.5"/>
      <path d="M27.75,778.74s18.09,3.33,18.09,27.06l10.9-18.75-8.16-10.96-17.04-3.41"/>
      <polyline points="62.08 895.09 96.87 922.02 96.87 954.13 81.66 957.31"/>
      <path d="M39.42,1125.78s-12.13,10.1-21.35,13.97l21.88-4.41,2.84-7.85"/>
      <path d="M289.38,979.6c-18.32-67.67-91.42-102.25-154.65-71.52,0,0-8.73,4.51-18.23,12.3-1.78,1.5-3.53,3.05-5.27,4.62-4.97,4.68-9.75,10.19-13.21,16.36v-4.11c-.67.61-1.35,1.22-2.03,1.83l.03-190.3-81.52,25.81,22.28,6.95c4.81,1.5,9.07,12.78,9.07,19.05l-.03,310.47c0,14.73-12.83,18.71-24,27.62,19.79-2.88,37.33-9.8,56.68-2.37,65.23,25.03,152.56,25.24,193.78-37.6,23.21-35.39,27.96-78.9,17.1-119.12ZM236.46,1051.06c-3.7,28.61-12.83,56.25-36.18,75.36-18.23,14.95-40.08,19-62.19,12.07-15.46-4.83-40.28-20.41-40.51-43.56-.48-46.16-6.84-95.23,1.78-141.51,3.19-17.2,16.71-28.79,33.28-34.69,21.3-7.58,47.64-5.77,63.54,5.6,41.27,29.57,46.08,81.67,40.28,126.73Z"/>
      <g>
        <path d="M1241.08,946.85c-20.94-28.27-9.03-37.27,20.78-44.11h-60.45v39.69l39.67,4.42Z"/>
        <path d="M1187.57,949c-18.86-26.55-30.1-39.42-59.91-46.26h79.58s.7,37.58.7,37.58l-20.37,8.69Z"/>
      </g>
      <g>
        <path d="M1295.08,1101.24c20.94,28.27,9.03,37.27-20.78,44.11h60.45v-39.69l-39.67-4.42Z"/>
        <path d="M1348.6,1099.1c18.86,26.55,30.1,39.42,59.91,46.26h-79.58s-.7-37.58-.7-37.58l20.37-8.69Z"/>
      </g>
      <g>
        <path d="M857.27,959.32c-.14-26.83-18.45-51.23-42.38-58.52-46.11-14.05-90.69,7.97-115.71,50.66-5.59-22.74-17.88-42.65-40.37-50.31-30.67-10.44-64.61-3.33-87.85,18.64l-26.16,28.88-1.41-32.89v44.17c5.69-18.4,46.93-57.06,85.19-33.5,13.84,8.52,22.78,28.27,22.83,45.14l.12,40.28,49.87,2.16-.19-52.31c.68-33.78,51.23-50.87,79.16-39.02,17.84,7.56,26.56,24.68,26.63,43.47l.04,139.45h50.22v-146.28Z"/>
        <g>
          <path d="M484.43,916.25c1.13-.02,1.59.85,1.47,1.69.26,0,.52,0,.77-.01,2.06-.01,1.98,2.96,0,3.14-1.05.1-2.11.19-3.16.28.52.13,1.04.28,1.56.45.86.28,1.14,1.04,1.05,1.74,5.42,2.97,9.09,7.87,9.1,18.03l.11,169.28h49.84l-.2-217.51c-11.92,4.37-22.99,8.05-33.68,11.3-.05.09-.1.18-.16.26-3.14,3.71-9.35,3.83-13.79,4.39-.18.02-.33,0-.47-.04-2.13.73-4.25,1.48-6.36,2.23-5.13,1.82-10.27,3.61-15.52,5.03.41.27.7.72.78,1.2,2.89-.47,5.71-1.41,8.67-1.46Z"/>
          <path d="M544.97,893.34s-66.31,22.02-81.06,23.46c0,0,31.31,2.47,31.31,30.07l39.69-37.02,10.05-16.51Z"/>
          <g>
            <path d="M495.37,1105.6c0,25.52-1.04,32.85-30.85,39.69h60.45v-39.69h-29.6Z"/>
            <path d="M545.19,1105.6c0,25.52,1.04,32.85,30.85,39.69h-60.45v-39.69h29.6Z"/>
          </g>
        </g>
        <g>
          <polygon points="651.48 978.64 651.57 1110.84 701.41 1110.84 701.29 978.64 651.48 978.64"/>
          <g>
            <path d="M651.61,1105.6c0,25.52-1.04,32.85-30.85,39.69h60.45v-39.69h-29.6Z"/>
            <path d="M701.43,1105.6c0,25.52,1.04,32.85,30.85,39.69h-60.45v-39.69h29.6Z"/>
          </g>
        </g>
        <g>
          <path d="M807.02,1105.6c0,25.52-1.04,32.85-30.85,39.69h60.45v-39.69h-29.6Z"/>
          <path d="M857.27,1105.6c0,25.52,1.04,32.85,30.85,39.69h-60.45v-39.69h29.6Z"/>
        </g>
        <path d="M544.97,966.31s3.73-38.23,53.14-47.01l-2.9-6.2-36.54,21.98-20.32,17.74-2.43,24.11"/>
        <path d="M593.95,920.13s15.78-4.34,34.64,6.31l-12.18-16.93s-16.82,2.05-17.22,2.15-4.86,4.35-4.86,4.35"/>
        <path d="M591.02,905.71s-35.34,16.1-59.15,60.9l7.17-9.6,17.54-20.85,20.22-17.42"/>
        <path d="M701.25,975.72s-.11-52.8,55.74-56.71l-14.29-3.48-25.17,14.57-16.11,19.23-7.22,17.82v9.62"/>
      </g>
      <g>
        <path d="M1954.66,959.32c-.14-26.83-18.45-51.23-42.38-58.52-46.11-14.05-90.69,7.97-115.71,50.66-5.59-22.74-17.88-42.65-40.37-50.31-30.67-10.44-64.61-3.33-87.85,18.64l-26.16,28.88-1.41-32.89v44.17c5.69-18.4,46.93-57.06,85.19-33.5,13.84,8.52,22.78,28.27,22.83,45.14l.12,40.28,49.87,2.16-.19-52.31c.68-33.78,51.23-50.87,79.16-39.02,17.84,7.56,26.56,24.68,26.63,43.47l.04,139.45h50.22v-146.28Z"/>
        <g>
          <path d="M1581.81,916.25c1.13-.02,1.59.85,1.47,1.69.26,0,.52,0,.77-.01,2.06-.01,1.98,2.96,0,3.14-1.05.1-2.11.19-3.16.28.52.13,1.04.28,1.56.45.86.28,1.14,1.04,1.05,1.74,5.42,2.97,9.09,7.87,9.1,18.03l.11,169.28h49.84l-.2-217.51c-11.92,4.37-22.99,8.05-33.68,11.3-.05.09-.1.18-.16.26-3.14,3.71-9.35,3.83-13.79,4.39-.18.02-.33,0-.47-.04-2.13.73-4.25,1.48-6.36,2.23-5.13,1.82-10.27,3.61-15.52,5.03.41.27.7.72.78,1.2,2.89-.47,5.71-1.41,8.67-1.46Z"/>
          <path d="M1642.35,893.34s-66.31,22.02-81.06,23.46c0,0,31.31,2.47,31.31,30.07l39.69-37.02,10.05-16.51Z"/>
          <g>
            <path d="M1592.76,1105.6c0,25.52-1.04,32.85-30.85,39.69h60.45v-39.69h-29.6Z"/>
            <path d="M1642.58,1105.6c0,25.52,1.04,32.85,30.85,39.69h-60.45v-39.69h29.6Z"/>
          </g>
        </g>
        <g>
          <polygon points="1748.87 978.64 1748.95 1110.84 1798.8 1110.84 1798.67 978.64 1748.87 978.64"/>
          <g>
            <path d="M1749,1105.6c0,25.52-1.04,32.85-30.85,39.69h60.45v-39.69h-29.6Z"/>
            <path d="M1798.82,1105.6c0,25.52,1.04,32.85,30.85,39.69h-60.45v-39.69h29.6Z"/>
          </g>
        </g>
        <g>
          <path d="M1904.4,1105.6c0,25.52-1.04,32.85-30.85,39.69h60.45v-39.69h-29.6Z"/>
          <path d="M1954.65,1105.6c0,25.52,1.04,32.85,30.85,39.69h-60.45v-39.69h29.6Z"/>
        </g>
        <path d="M1642.35,966.31s3.73-38.23,53.14-47.01l-2.9-6.2-36.54,21.98-20.32,17.74-2.43,24.11"/>
        <path d="M1691.34,920.13s15.78-4.34,34.64,6.31l-12.18-16.93s-16.82,2.05-17.22,2.15-4.86,4.35-4.86,4.35"/>
        <path d="M1688.41,905.71s-35.34,16.1-59.15,60.9l7.17-9.6,17.54-20.85,20.22-17.42"/>
        <path d="M1798.64,975.72s-.11-52.8,55.74-56.71l-14.29-3.48-25.17,14.57-16.11,19.23-7.22,17.82v9.62"/>
      </g>
      <path d="M1058.61,1102.84s2.31,48.28,48.53,47.58c0,0,28.74-.23,40.87-27.48l-11,11.41-18.86,7.76-6.63,1.7-15.91-7.56-.29-39.83-15.18-3.66"/>
      <path d="M1107.14,1111.99s-.91,32.3,29.08,19.38l1.65.13-8.62,8.24s-10.41-.53-10.68-.53-9.95-6-9.95-6l-7.96-13.05,6.48-8.17Z"/>
      <path d="M1352.95,929.6c16.93-24.45,39.03-22.7,51-26.86h-58.36l-.8,23.46,8.16,3.4Z"/>
      <path d="M1335,940.61c19.1-26.02-12.97-32.69-29.84-37.87h69.02s-24.75,31.31-24.75,31.31l-14.43,6.56Z"/>
      <g>
        <g>
          <path d="M347.64,916.25c1.13-.02,1.59.85,1.47,1.69.26,0,.52,0,.77-.01,2.06-.01,1.98,2.96,0,3.14-1.05.1-2.11.19-3.16.28.52.13,1.04.28,1.56.45.86.28,1.14,1.04,1.05,1.74,5.42,2.97,9.09,7.87,9.1,18.03l.11,169.28h49.84l-.02-217.51c-11.92,4.37-23.17,8.05-33.87,11.3-.05.09-.1.18-.16.26-3.14,3.71-9.35,3.83-13.79,4.39-.18.02-.33,0-.47-.04-2.13.73-4.25,1.48-6.36,2.23-5.13,1.82-10.27,3.61-15.52,5.03.41.27.7.72.78,1.2,2.89-.47,5.71-1.41,8.67-1.46Z"/>
          <path d="M408.38,893.34s-66.51,22.02-81.26,23.46c0,0,31.31,2.47,31.31,30.07l39.69-37.02,10.25-16.51Z"/>
          <g>
            <path d="M358.59,1105.6c0,25.52-1.04,32.85-30.85,39.69h60.45v-39.69h-29.6Z"/>
            <path d="M408.41,1105.6c0,25.52,1.04,32.85,30.85,39.69h-60.45v-39.69h29.6Z"/>
          </g>
        </g>
        <circle cx="383" cy="806.14" r="31.5"/>
      </g>
      <g>
        <g>
          <path d="M1443.93,916.25c1.13-.02,1.59.85,1.47,1.69.26,0,.52,0,.77-.01,2.06-.01,1.98,2.96,0,3.14-1.05.1-2.11.19-3.16.28.52.13,1.04.28,1.56.45.86.28,1.14,1.04,1.05,1.74,5.42,2.97,9.09,7.87,9.1,18.03l.11,169.28h49.84l-.02-217.51c-11.92,4.37-23.17,8.05-33.87,11.3-.05.09-.1.18-.16.26-3.14,3.71-9.35,3.83-13.79,4.39-.18.02-.33,0-.47-.04-2.13.73-4.25,1.48-6.36,2.23-5.13,1.82-10.27,3.61-15.52,5.03.41.27.7.72.78,1.2,2.89-.47,5.71-1.41,8.67-1.46Z"/>
          <path d="M1504.67,893.34s-66.51,22.02-81.26,23.46c0,0,31.31,2.47,31.31,30.07l39.69-37.02,10.25-16.51Z"/>
          <g>
            <path d="M1454.88,1105.6c0,25.52-1.04,32.85-30.85,39.69h60.45v-39.69h-29.6Z"/>
            <path d="M1504.7,1105.6c0,25.52,1.04,32.85,30.85,39.69h-60.45v-39.69h29.6Z"/>
          </g>
        </g>
        <circle cx="1479.29" cy="806.14" r="31.5"/>
      </g>
      <path d="M120.27,926.44s10.08-10.21,34.44-12.13l-12.57-2.93-13,5.1-9.34,5.89"/>
    </g>
    <text class="cls-6" transform="translate(39.84 1295.42)"><tspan class="cls-2" x="0" y="0">PR</tspan><tspan class="cls-1" x="148.75" y="0">O</tspan><tspan class="cls-3" x="234.9" y="0">J</tspan><tspan class="cls-5" x="298.33" y="0">E</tspan><tspan class="cls-4" x="370.91" y="0">C</tspan><tspan class="cls-3" x="449.91" y="0">TION MAPPING PRODUCER</tspan></text>
  </g>
  <g>
    <path d="M1166.3,902.85h-21.68c-.06-.03-.11-.06-.17-.11l21.85.11Z"/>
    <path d="M1242.7,908.03c-1.02.2-2.04.42-3.11.62.99-.31,2.04-.51,3.11-.62Z"/>
    <path d="M1166.3,902.85h-21.68c-.06-.03-.11-.06-.17-.11l21.85.11Z"/>
    <path d="M1119.57,1134.86c-7.92-1.82-12.4-13.13-12.42-21.65l.03-134.95-.06-15.93c-.06-10.07-2.69-19.2-6.88-27.3-10.06-19.69-30.56-32.87-53.26-36.52-82.06-13.13-141.59,38.48-126.84,73.43,4.52,10.63,18.15,12.54,28.75,10.21,7.07-1.54,17.92-9.37,19.14-19.04,1.81-14.67-4.66-27.65-12.92-39.27,18.66-15.34,44.01-22.38,68.27-15.51,41.07,11.61,36.61,56.71,35.53,91.12-46.08,23.84-140.24,25.89-148.29,84.9-2.8,20.47,2.37,42.86,21.17,54.78,28.35,17.98,65.41,13.24,92.92-5.3,12.52-8.44,23.37-20.35,33.91-30.98,3.67,11.7,5.75,28.03,15.36,34.91,24.82,17.78,60.78,9.62,74.03-14.81-8.4,8.71-21.83,13.46-28.44,11.92ZM998.13,1127.82c-21.29-.59-35.96-13.83-39.21-33.24-5-29.79,12.78-56.65,41.41-66.64l58.28-20.37v85.23c-12.83,21.15-33.57,35.77-60.48,35.02Z"/>
    <path d="M1302.95,1112.37h55.09l-70.85-100,1.75-2.2,24.25-30.5h-10.71l-20.72,24.9-17.55-24.9-34.8-49.36c-1.86-2.65-2.01-6.42-1.19-10.09h-61.11l6.67,9.38,35.56,50.06,21.68,30.5,20.81,29.29-103.6,133.4c-21.48,27.7-51.96,37.4-87.29,39.46,38.02,11.22,73.84-8.08,96.7-38.08l98.74-127.77,46.57,65.91Z"/>
    <path d="M1144.45,902.74l21.85.11h-21.68c-.06-.03-.11-.06-.17-.11Z"/>
    <path d="M1242.7,908.03c-1.02.2-2.04.42-3.11.62.99-.31,2.04-.51,3.11-.62Z"/>
    <path d="M1239.59,908.65c.99-.31,2.04-.51,3.11-.62-1.02.2-2.04.42-3.11.62Z"/>
    <path d="M1341.31,933.11c-.16.75-.44,1.48-.81,2.16-.17.3-.56.45-.89.36-.27-.07-.41-.29-.49-.53-.6,1.08-1.3,2.12-2.13,3.11l-34.52,41.44h10.71l36.98-46.55h-8.87Z"/>
    <path d="M132.64,918.74s-34.62,11.06-34.62,68.12l-24.1,4.56,23.88-48.64,21.89-21.67,14.81-8.4"/>
    <polyline points="98.02 960.91 98.02 1106.62 73.92 1100.41 65.3 1031.21 65.3 991.42"/>
    <path d="M98.02,1091.98s-3.15,26.78,30.41,42.58l-25.03,2.1-21.75-16.97-1.45-14.63"/>
    <polyline points="98.02 966.34 98.02 748.79 98.02 748.13 87.46 751.5 87.19 759.5"/>
    <path d="M27.75,778.74s18.09,3.33,18.09,27.06l10.9-18.75-8.16-10.96-17.04-3.41"/>
    <polyline points="62.08 895.09 96.87 922.02 96.87 954.13 81.66 957.31"/>
    <path d="M39.42,1125.78s-12.13,10.1-21.35,13.97l21.88-4.41,2.84-7.85"/>
    <path d="M289.38,979.6c-18.32-67.67-91.42-102.25-154.65-71.52,0,0-8.73,4.51-18.23,12.3-1.78,1.5-3.53,3.05-5.27,4.62-4.97,4.68-9.75,10.19-13.21,16.36v-4.11c-.67.61-1.35,1.22-2.03,1.83l.03-190.3-81.52,25.81,22.28,6.95c4.81,1.5,9.07,12.78,9.07,19.05l-.03,310.47c0,14.73-12.83,18.71-24,27.62,19.79-2.88,37.33-9.8,56.68-2.37,65.23,25.03,152.56,25.24,193.78-37.6,23.21-35.39,27.96-78.9,17.1-119.12ZM236.46,1051.06c-3.7,28.61-12.83,56.25-36.18,75.36-18.23,14.95-40.08,19-62.19,12.07-15.46-4.83-40.28-20.41-40.51-43.56-.48-46.16-6.84-95.23,1.78-141.51,3.19-17.2,16.71-28.79,33.28-34.69,21.3-7.58,47.64-5.77,63.54,5.6,41.27,29.57,46.08,81.67,40.28,126.73Z"/>
    <g>
      <path d="M1241.08,946.85c-20.94-28.27-9.03-37.27,20.78-44.11h-60.45v39.69l39.67,4.42Z"/>
      <path d="M1187.57,949c-18.86-26.55-30.1-39.42-59.91-46.26h79.58s.7,37.58.7,37.58l-20.37,8.69Z"/>
    </g>
    <g>
      <path d="M1295.08,1101.24c20.94,28.27,9.03,37.27-20.78,44.11h60.45v-39.69l-39.67-4.42Z"/>
      <path d="M1348.6,1099.1c18.86,26.55,30.1,39.42,59.91,46.26h-79.58s-.7-37.58-.7-37.58l20.37-8.69Z"/>
    </g>
    <g>
      <path d="M857.27,959.32c-.14-26.83-18.45-51.23-42.38-58.52-46.11-14.05-90.69,7.97-115.71,50.66-5.59-22.74-17.88-42.65-40.37-50.31-30.67-10.44-64.61-3.33-87.85,18.64l-26.16,28.88-1.41-32.89v44.17c5.69-18.4,46.93-57.06,85.19-33.5,13.84,8.52,22.78,28.27,22.83,45.14l.12,40.28,49.87,2.16-.19-52.31c.68-33.78,51.23-50.87,79.16-39.02,17.84,7.56,26.56,24.68,26.63,43.47l.04,139.45h50.22v-146.28Z"/>
      <g>
        <path d="M484.43,916.25c1.13-.02,1.59.85,1.47,1.69.26,0,.52,0,.77-.01,2.06-.01,1.98,2.96,0,3.14-1.05.1-2.11.19-3.16.28.52.13,1.04.28,1.56.45.86.28,1.14,1.04,1.05,1.74,5.42,2.97,9.09,7.87,9.1,18.03l.11,169.28h49.84l-.2-217.51c-11.92,4.37-22.99,8.05-33.68,11.3-.05.09-.1.18-.16.26-3.14,3.71-9.35,3.83-13.79,4.39-.18.02-.33,0-.47-.04-2.13.73-4.25,1.48-6.36,2.23-5.13,1.82-10.27,3.61-15.52,5.03.41.27.7.72.78,1.2,2.89-.47,5.71-1.41,8.67-1.46Z"/>
        <path d="M544.97,893.34s-66.31,22.02-81.06,23.46c0,0,31.31,2.47,31.31,30.07l39.69-37.02,10.05-16.51Z"/>
        <g>
          <path d="M495.37,1105.6c0,25.52-1.04,32.85-30.85,39.69h60.45v-39.69h-29.6Z"/>
          <path d="M545.19,1105.6c0,25.52,1.04,32.85,30.85,39.69h-60.45v-39.69h29.6Z"/>
        </g>
      </g>
      <g>
        <polygon points="651.48 978.64 651.57 1110.84 701.41 1110.84 701.29 978.64 651.48 978.64"/>
        <g>
          <path d="M651.61,1105.6c0,25.52-1.04,32.85-30.85,39.69h60.45v-39.69h-29.6Z"/>
          <path d="M701.43,1105.6c0,25.52,1.04,32.85,30.85,39.69h-60.45v-39.69h29.6Z"/>
        </g>
      </g>
      <g>
        <path d="M807.02,1105.6c0,25.52-1.04,32.85-30.85,39.69h60.45v-39.69h-29.6Z"/>
        <path d="M857.27,1105.6c0,25.52,1.04,32.85,30.85,39.69h-60.45v-39.69h29.6Z"/>
      </g>
      <path d="M544.97,966.31s3.73-38.23,53.14-47.01l-2.9-6.2-36.54,21.98-20.32,17.74-2.43,24.11"/>
      <path d="M593.95,920.13s15.78-4.34,34.64,6.31l-12.18-16.93s-16.82,2.05-17.22,2.15-4.86,4.35-4.86,4.35"/>
      <path d="M591.02,905.71s-35.34,16.1-59.15,60.9l7.17-9.6,17.54-20.85,20.22-17.42"/>
      <path d="M701.25,975.72s-.11-52.8,55.74-56.71l-14.29-3.48-25.17,14.57-16.11,19.23-7.22,17.82v9.62"/>
    </g>
    <g>
      <path d="M1954.66,959.32c-.14-26.83-18.45-51.23-42.38-58.52-46.11-14.05-90.69,7.97-115.71,50.66-5.59-22.74-17.88-42.65-40.37-50.31-30.67-10.44-64.61-3.33-87.85,18.64l-26.16,28.88-1.41-32.89v44.17c5.69-18.4,46.93-57.06,85.19-33.5,13.84,8.52,22.78,28.27,22.83,45.14l.12,40.28,49.87,2.16-.19-52.31c.68-33.78,51.23-50.87,79.16-39.02,17.84,7.56,26.56,24.68,26.63,43.47l.04,139.45h50.22v-146.28Z"/>
      <g>
        <path d="M1581.81,916.25c1.13-.02,1.59.85,1.47,1.69.26,0,.52,0,.77-.01,2.06-.01,1.98,2.96,0,3.14-1.05.1-2.11.19-3.16.28.52.13,1.04.28,1.56.45.86.28,1.14,1.04,1.05,1.74,5.42,2.97,9.09,7.87,9.1,18.03l.11,169.28h49.84l-.2-217.51c-11.92,4.37-22.99,8.05-33.68,11.3-.05.09-.1.18-.16.26-3.14,3.71-9.35,3.83-13.79,4.39-.18.02-.33,0-.47-.04-2.13.73-4.25,1.48-6.36,2.23-5.13,1.82-10.27,3.61-15.52,5.03.41.27.7.72.78,1.2,2.89-.47,5.71-1.41,8.67-1.46Z"/>
        <path d="M1642.35,893.34s-66.31,22.02-81.06,23.46c0,0,31.31,2.47,31.31,30.07l39.69-37.02,10.05-16.51Z"/>
        <g>
          <path d="M1592.76,1105.6c0,25.52-1.04,32.85-30.85,39.69h60.45v-39.69h-29.6Z"/>
          <path d="M1642.58,1105.6c0,25.52,1.04,32.85,30.85,39.69h-60.45v-39.69h29.6Z"/>
        </g>
      </g>
      <g>
        <polygon points="1748.87 978.64 1748.95 1110.84 1798.8 1110.84 1798.67 978.64 1748.87 978.64"/>
        <g>
          <path d="M1749,1105.6c0,25.52-1.04,32.85-30.85,39.69h60.45v-39.69h-29.6Z"/>
          <path d="M1798.82,1105.6c0,25.52,1.04,32.85,30.85,39.69h-60.45v-39.69h29.6Z"/>
        </g>
      </g>
      <g>
        <path d="M1904.4,1105.6c0,25.52-1.04,32.85-30.85,39.69h60.45v-39.69h-29.6Z"/>
        <path d="M1954.65,1105.6c0,25.52,1.04,32.85,30.85,39.69h-60.45v-39.69h29.6Z"/>
      </g>
      <path d="M1642.35,966.31s3.73-38.23,53.14-47.01l-2.9-6.2-36.54,21.98-20.32,17.74-2.43,24.11"/>
      <path d="M1691.34,920.13s15.78-4.34,34.64,6.31l-12.18-16.93s-16.82,2.05-17.22,2.15-4.86,4.35-4.86,4.35"/>
      <path d="M1688.41,905.71s-35.34,16.1-59.15,60.9l7.17-9.6,17.54-20.85,20.22-17.42"/>
      <path d="M1798.64,975.72s-.11-52.8,55.74-56.71l-14.29-3.48-25.17,14.57-16.11,19.23-7.22,17.82v9.62"/>
    </g>
    <path d="M1058.61,1102.84s2.31,48.28,48.53,47.58c0,0,28.74-.23,40.87-27.48l-11,11.41-18.86,7.76-6.63,1.7-15.91-7.56-.29-39.83-15.18-3.66"/>
    <path d="M1107.14,1111.99s-.91,32.3,29.08,19.38l1.65.13-8.62,8.24s-10.41-.53-10.68-.53-9.95-6-9.95-6l-7.96-13.05,6.48-8.17Z"/>
    <path d="M1352.95,929.6c16.93-24.45,39.03-22.7,51-26.86h-58.36l-.8,23.46,8.16,3.4Z"/>
    <path d="M1335,940.61c19.1-26.02-12.97-32.69-29.84-37.87h69.02s-24.75,31.31-24.75,31.31l-14.43,6.56Z"/>
    <g>
      <g>
        <path d="M347.64,916.25c1.13-.02,1.59.85,1.47,1.69.26,0,.52,0,.77-.01,2.06-.01,1.98,2.96,0,3.14-1.05.1-2.11.19-3.16.28.52.13,1.04.28,1.56.45.86.28,1.14,1.04,1.05,1.74,5.42,2.97,9.09,7.87,9.1,18.03l.11,169.28h49.84l-.02-217.51c-11.92,4.37-23.17,8.05-33.87,11.3-.05.09-.1.18-.16.26-3.14,3.71-9.35,3.83-13.79,4.39-.18.02-.33,0-.47-.04-2.13.73-4.25,1.48-6.36,2.23-5.13,1.82-10.27,3.61-15.52,5.03.41.27.7.72.78,1.2,2.89-.47,5.71-1.41,8.67-1.46Z"/>
        <path d="M408.38,893.34s-66.51,22.02-81.26,23.46c0,0,31.31,2.47,31.31,30.07l39.69-37.02,10.25-16.51Z"/>
        <g>
          <path d="M358.59,1105.6c0,25.52-1.04,32.85-30.85,39.69h60.45v-39.69h-29.6Z"/>
          <path d="M408.41,1105.6c0,25.52,1.04,32.85,30.85,39.69h-60.45v-39.69h29.6Z"/>
        </g>
      </g>
      <circle cx="383" cy="806.14" r="31.5"/>
    </g>
    <g>
      <g>
        <path d="M1443.93,916.25c1.13-.02,1.59.85,1.47,1.69.26,0,.52,0,.77-.01,2.06-.01,1.98,2.96,0,3.14-1.05.1-2.11.19-3.16.28.52.13,1.04.28,1.56.45.86.28,1.14,1.04,1.05,1.74,5.42,2.97,9.09,7.87,9.1,18.03l.11,169.28h49.84l-.02-217.51c-11.92,4.37-23.17,8.05-33.87,11.3-.05.09-.1.18-.16.26-3.14,3.71-9.35,3.83-13.79,4.39-.18.02-.33,0-.47-.04-2.13.73-4.25,1.48-6.36,2.23-5.13,1.82-10.27,3.61-15.52,5.03.41.27.7.72.78,1.2,2.89-.47,5.71-1.41,8.67-1.46Z"/>
        <path d="M1504.67,893.34s-66.51,22.02-81.26,23.46c0,0,31.31,2.47,31.31,30.07l39.69-37.02,10.25-16.51Z"/>
        <g>
          <path d="M1454.88,1105.6c0,25.52-1.04,32.85-30.85,39.69h60.45v-39.69h-29.6Z"/>
          <path d="M1504.7,1105.6c0,25.52,1.04,32.85,30.85,39.69h-60.45v-39.69h29.6Z"/>
        </g>
      </g>
      <circle cx="1479.29" cy="806.14" r="31.5"/>
    </g>
    <path d="M120.27,926.44s10.08-10.21,34.44-12.13l-12.57-2.93-13,5.1-9.34,5.89"/>
  </g>
</svg>