<?xml version="1.0" encoding="UTF-8"?>
<svg id="Layer_2" data-name="Layer 2" xmlns="http://www.w3.org/2000/svg" viewBox="0 0 341.78 340.38">
  <defs>
    <style>
      .cls-1 {
        fill: #fff;
      }
    </style>
  </defs>
  <g id="marai_kult" data-name="marai kult">
    <g>
      <path class="cls-1" d="M341.78,317.76v1.68c-.77,2.08-2.38,3.6-4.63,3.36-2.18-.23-3.84-2.01-3.76-4.32.07-2.08,1.71-3.87,4.03-3.99,2-.1,3.56,1.31,4.36,3.27Z"/>
      <path class="cls-1" d="M0,319.79v-2.38c.96-1.95,2.73-3.25,4.85-2.85s3.49,2.19,3.43,4.22-1.65,3.78-3.67,4.03c-2.16.26-3.76-1.09-4.61-3.01Z"/>
      <path class="cls-1" d="M55.19,300.1c-4.48,11.35-9.38,24.49-13.35,34.86-.21.54-.84.74-.96.62s-.38-.43-.47-.67l-14.72-36-.04,29.89c0,1.4.45,2.65.96,3.92,2.27,1.45,2.51.83,4.43,1.61.19.08-.06.89-.3.89l-10.57-.03c-.18,0-.46-.88-.28-.94,1.39-.48,4.28-.64,4.29-4.39l.03-30.55c0-.81-.38-1.98-.84-2.41-.99-.92-2.16-.6-3.5-1.08-.26-.09.16-.98.52-.96,3.79.13,8.25.08,12.26-.05l11.81,29.37,11.11-29.17,11.91-.17c1.09,1.94-1.49.65-3.25,1.97-.52.39-.97,1.64-.97,2.51v31.46c0,.76.44,1.94.83,2.38.46.51,1.68.74,2.49.91l1.05.22c.23.05-.06.98-.35.98h-16.23c-.32-.01-.55-.91-.33-.95l1.26-.26c.79-.16,1.81-.34,2.39-.78.53-.39.78-1.6.97-2.5l-.16-30.64Z"/>
      <path class="cls-1" d="M136.95,336.04l-3.33-13.09c-.58-1.84-2.06-3.35-4.12-3.37l-7.96-.1.06,11.57c0,.69.41,1.88.85,2.28.51.45,1.58.63,2.36.79l1.05.22c.22.05-.01.84-.21,1.01h-15.75c-.27-.01-.57-.78-.4-.88,1.22-.73,2.32-.16,3.47-1.11.51-.42.92-1.71.92-2.56v-25.84c-.01-.77-.49-1.92-.93-2.31-.52-.47-1.58-.64-2.38-.79l-.98-.18c-.26-.05-.06-1.02.34-1.02h15.4c5.05,0,11.83.55,14.27,5.53,1.43,2.92.65,6.37-1.55,8.75s-5.01,3.17-7.92,3.85c4.84.55,10.85.73,12.2,6.12l2.8,11.16c.16.65.93,1.54,1.45,1.7.68.21,1.76-.22,2.34-.67l.78-.61c.2-.15.73.42.84.68-1.53,2.3-4.44,3.34-7.3,3.21-2.8-.12-5.53-1.28-6.31-4.34ZM131.61,305.85c-1.34-4.24-6.75-4.64-8.92-3.58-.65.32-1.1,1.91-1.1,2.7l-.03,13.24c1.84.02,3.39.05,5.1-.14,6.03-.65,6.3-7.99,4.96-12.23Z"/>
      <polygon class="cls-1" points="237.9 335.17 229.87 335.35 219.44 320.12 214.58 325.42 214.58 335.31 207.52 335.32 207.52 300.64 214.55 300.61 214.63 316.33 228.79 300.64 236.83 300.69 224.12 314.91 237.9 335.17"/>
      <path class="cls-1" d="M264.51,300.67l6.98-.04-.03,21.18c-.01,8.27-6.83,14.3-14.99,14.33-7.69.03-14.97-5.42-15.02-13.4l-.14-22.1h6.99s.07,21.23.07,21.23c.01,4.08,3.34,7.53,7.26,7.91,4.79.47,8.51-3.25,8.87-7.93v-21.19Z"/>
      <polygon class="cls-1" points="316.45 335.26 309.47 335.33 309.45 306.9 299.38 306.85 299.44 300.61 326.55 300.62 326.53 306.85 316.45 306.89 316.45 335.26"/>
      <path class="cls-1" d="M94.67,330.51l-3.3-7.57-12.52-.05c-1.25,2.37-3.73,7.48-1.87,9.72.52.63,1.77,1.13,2.77,1.33l1.13.23c.29.06.17,1.04-.2,1.04h-10.36c-.09-.12-.28-.86-.12-.95l.89-.52c1.21-.71,2.38-2.04,3.02-3.5l13.2-29.89,2.16.04,13.8,30.77c.66,1.48,1.85,2.48,3.28,3.02l.06,1.06h-15.48s-.01-.88-.01-.88c0-.49,2.31-.06,3.54-1.35.41-.42.27-1.89,0-2.5ZM90.76,321.59l-5.68-12.91-5.73,12.96,11.41-.05Z"/>
      <polygon class="cls-1" points="302.24 329.08 302.24 335.32 278.85 335.32 278.84 300.67 285.9 300.61 285.91 329.06 302.24 329.08"/>
      <path class="cls-1" d="M165.01,334.48c1.17-.78,1.64.02,3.43-1.18.63-.42.53-1.94.22-2.64l-3.37-7.67h-12.57s-2.4,5.44-2.4,5.44c-.14.32-.97.35-1.46.18l12.34-28.07,2.25-.02,13.77,30.73c.55,1.22,1.59,2.19,2.63,2.75l.69.37c.19.1-.02.77-.16.97h-14.88c-.33.01-.68-.74-.5-.86ZM164.71,321.66l-5.69-12.89-5.71,12.93,11.4-.05Z"/>
      <path class="cls-1" d="M198.66,335.24l-15.81-.02c-.36,0-.57-.94-.38-.98l1.19-.22c.75-.14,1.87-.38,2.3-.82s.85-1.64.85-2.44v-25.53c0-.82-.33-1.99-.77-2.53-.8-.98-2.26-.63-3.63-1.24-.23-.11.11-.97.48-.95,4.85.19,10.97.16,15.71,0,.16.15.45.95.26.99l-1.09.25c-.78.18-1.85.36-2.37.79-.47.38-.89,1.6-.89,2.38v26.11c.01,1.96,1.43,2.86,3.12,2.96.21.01.82.11,1.04.14.19.03.11.42-.04,1.09Z"/>
      <path class="cls-1" d="M84.68,295.25c-.33.12-.78.17-.83,0s.07-.71.25-.85c2.01-1.64,4.48-3.93,6.36-5.95,1.01-1.08,2.15-2,3.45-2.43,1.41-.46,2.84.1,3.44,1.29.5,1,.41,2.58-.68,3.45s-2.61,1.46-4.04,1.87c-2.7.78-5.17,1.6-7.94,2.62Z"/>
      <g>
        <path class="cls-1" d="M171.49,0c3.02.59,6.06,2.84,6.47,5.93.46,3.53-1.04,6.65-4.53,8.05l.02,12.22c4,1.24,6.67,4.59,6.77,8.7l.11,5.13c1.55.31,2.34,1.32,2.31,2.63-.03,1.19-.91,2.12-2.38,2.5l.03,14.8c8.18,2.65,14.56,8.23,18.42,15.71,28.42,8.55,51.64,29.73,62.59,57.38,10.48,26.47,8.74,56.38-4.57,81.51-.47.9-1.34,1.44-2.32,1.44h-19.77s0,24.73,0,24.73c0,1.09-.38,1.88-1,2.4-36.26,30.75-89.72,30.64-125.87-.19-.32-.35-.79-1.19-.79-1.9v-25.04s-19.63,0-19.63,0c-1.04,0-1.92-.47-2.42-1.42-13.28-25.08-15.05-54.95-4.63-81.39,10.94-27.74,34.24-48.98,62.67-57.53,3.87-7.63,10.5-13.14,18.47-15.75l-.03-14.83c-1.7-.26-2.45-1.38-2.38-2.69.06-1.2.9-2.11,2.37-2.39l.04-4.94c.03-4.21,2.76-7.62,6.76-8.86l-.03-12.26c-3.4-1.36-4.98-4.57-4.49-7.84s3.11-5.32,6.29-6.1h1.49ZM172.85,7.28c0-1.12-.9-2.02-2.02-2.02s-2.02.9-2.02,2.02.9,2.02,2.02,2.02,2.02-.9,2.02-2.02ZM175.07,40.05l-.06-5c-.03-2.35-2.11-4.18-4.26-4.12s-4.06,1.84-4.07,4.11v5s8.39,0,8.39,0ZM175.05,45.1h-8.39v13.62h8.39v-13.62ZM196.98,110.62l-.08-22c-.05-14.28-12.51-25.31-26.45-25.09-14.05.22-25.73,11.64-25.75,25.95l-.03,21.15h52.31ZM109.54,115.71c-8.77,10.32-14.67,21.91-17.66,34.7-.35,1.5-1.7,2.19-3.03,1.9-1.21-.26-2.22-1.47-1.9-2.9,6.36-27.8,26.18-50.52,52.71-60.81.15-2.32.44-4.29.94-6.83-32.14,11.18-55.76,39.63-60.95,73.43l25.81.02c18.01-.85,32.52-14.83,34.09-32.72l.09-6.81-30.1.03ZM255.85,155.2c2.41.03,4.23.06,6.14-.19-5.31-33.76-28.72-61.96-60.88-73.25l.91,6.84c28.5,11.07,49,36.3,53.83,66.6ZM139.71,110.62l-.08-16.58c-9.55,4.07-17.66,9.28-25.08,16.52l25.16.06ZM227.1,110.54c-7.51-7.33-15.65-12.49-25.05-16.48l-.03,16.59,25.08-.1ZM197.04,115.68h-52.38v6.11h52.38v-6.11ZM250.73,155.19c-2.45-14.64-8.92-28.23-18.66-39.5h-29.88c-2.15,20.44,13.5,39.45,34.46,39.48l14.08.02ZM217.82,155.19c-10.88-6.46-17.94-16.4-20.21-28.36h-53.59c-2.19,11.98-9.41,22.02-20.23,28.36h94.03ZM134.79,171.06c-3.11-.85-5.33-3.11-5.43-6.1l-.15-4.69h-50.18c-.51,5.83-.61,11.59.07,17.24h55.72s-.02-6.45-.02-6.45ZM207.29,160.27h-72.95s0,6.1,0,6.1h72.95s0-6.1,0-6.1ZM226.92,204.84c-1.8,0-2.87-1.05-2.86-2.6.01-1.32,1.11-2.52,2.72-2.46h30.95c1.95-5.69,3.45-11.33,4.26-17.23h-49.45c-1.68-.02-2.73-1.07-2.72-2.59.01-1.22.9-2.36,2.43-2.47h50.4c.49-5.89.57-11.61-.06-17.24h-50.19c.02,5.73.33,8.68-5.62,10.91v82.58c8.37-3.45,15.68-8.04,22.78-13.73l.03-26.49c.08-1.45,1.04-2.52,2.51-2.58h20.77s2.84-6.08,2.84-6.08l-28.79-.02ZM201.73,171.42h-61.82v6.09h61.82v-6.09ZM109.82,210.94c1.39.28,2.18,1.18,2.23,2.46v26.52c6.86,5.61,14.25,10.25,22.81,13.82v-71.18s-55.19,0-55.19,0c.9,6.09,2.32,11.52,4.28,17.22h31.3c1.56.17,2.49,1.38,2.37,2.74s-1.11,2.32-2.61,2.32l-29.01.02c.95,2.36,1.8,4.15,2.85,6.08h20.98ZM182.03,210.95c1.54,0,2.4,1.2,2.46,2.49v46.65c5.96-.92,11.57-2.33,17.24-4.32v-73.2s-61.82,0-61.82,0v73.2c5.75,1.98,11.34,3.45,17.23,4.29v-46.62c.13-1.36,1.06-2.48,2.46-2.48h22.43ZM179.44,216h-17.24v11.44h17.24v-11.44ZM179.44,260.66v-28.15s-17.24-.03-17.24-.03v28.21c5.86.51,11.47.57,17.24-.04Z"/>
        <path class="cls-1" d="M187.68,204.84h-33.41c-1.62.01-2.67-1.14-2.65-2.58.02-1.33,1.05-2.47,2.65-2.47h33.23c1.44,0,2.42,1.02,2.55,2.25.13,1.15-.65,2.8-2.37,2.8Z"/>
      </g>
    </g>
  </g>
</svg>