<?xml version="1.0" encoding="UTF-8"?>
<svg id="Layer_2" data-name="Layer 2" xmlns="http://www.w3.org/2000/svg" viewBox="0 0 423.6 167.53">
  <defs>
    <style>
      .cls-1 {
        fill: #fff;
      }
    </style>
  </defs>
  <g id="mupa">
    <g>
      <path class="cls-1" d="M240.83,52.4l-.08,24.43h-13.2s-.02-25.51-.02-25.51c0-2.2-.47-4.48-1.55-6.27-1.23-2.03-3.46-2.62-5.64-2.72-6.59-.32-9.21,5.29-9.22,11.07l-.03,23.43-13.15.11v-44.21s13.22,0,13.22,0c-.12,1.96-.11,3.57.14,5.63,3.53-4.94,8.75-6.86,14.59-6.74,6.13.13,11.56,3.2,13.79,9.14,1.55-2.76,2.91-4.95,5.26-6.48,5.99-3.88,16.49-3.79,21.71,2,2.18,2.42,3.73,5.9,3.74,9.3l.09,31.25h-13.2s-.04-25.18-.04-25.18c0-4.54-1.67-9.28-7.03-9.3-1.99,0-4.1.23-5.68,1.51-2.49,2.02-3.69,5.14-3.7,8.54Z"/>
      <path class="cls-1" d="M334.78,94.7l-13.16.04v-61.57s13.06,0,13.06,0l.39,2.58c8.54-5.44,19.78-5,27.7,1.33,5.74,4.58,8.2,11.54,8.2,18.67,0,12.48-9.31,22.2-21.78,22.57-5.19.16-9.85-1-14.36-4.35l-.06,20.72ZM348.35,68.47c4.29-.63,7.36-3.24,8.55-7.22,1.32-4.41,1.22-9.11-.64-13.44-.61-1.43-1.79-3.07-3.1-3.9-8.61-5.49-18.26.77-18.29,4.23l-.14,12.21c-.02,2.07,1,3.74,2.49,5.1,2.98,2.73,6.93,3.64,11.14,3.02Z"/>
      <path class="cls-1" d="M317.38,44.55l.02,32.69-13.05-.03-.3-5.69c-3.2,4.5-7.57,6.56-12.86,6.8-4.77.22-9.47-.9-12.77-4.52-2.37-2.61-3.78-6.03-3.78-9.64l-.03-19.59,13.09-.03.12,14.83c.02,2.32.85,5.11,2.59,6.6,3.39,2.9,8.4,2.02,11.35-1.02,1.59-2.22,2.45-4.66,2.46-7.41l.05-12.97,13.12-.04Z"/>
      <polygon class="cls-1" points="317.36 40.81 304.28 40.8 304.23 33.17 317.4 33.16 317.36 40.81"/>
      <polygon class="cls-1" points="287.77 40.77 274.62 40.82 274.57 33.17 287.71 33.17 287.77 40.77"/>
      <path class="cls-1" d="M422.93,76.76l-12.92.06-.31-3.12c-10.95,8-27.65,4.41-33.63-7.8-3.09-6.32-3.19-13.65-.74-20.24,5.14-13.84,22.89-18.08,34.31-10.05l.27-2.87h13s.01,44.01.01,44.01ZM409.91,59.65c-.03-3.99.11-7.85-.16-11.82-.29-4.16-11.01-9.82-18.64-4.03-2.2,1.67-3.43,4.4-3.88,7.07-1.22,7.22.24,15.71,8.66,17.13,6.43,1.08,14.08-2.17,14.03-8.34Z"/>
      <path class="cls-1" d="M214.88,112.33c5.45,1.52,8.51,5.61,8.36,10.92.15,4.11-1.74,7.68-5.3,9.72-2.53,1.25-5.25,2.17-8.14,2.16l-11.84-.04v-43.24s11.6-.01,11.6-.01c2.52,0,4.94.69,7.23,1.6,3.3,1.98,5.2,5.41,5.06,9.31,0,4.41-2.59,7.7-6.98,9.59ZM211.5,111.26c4.69-.58,7.75-4.22,7.69-8.34-.06-4.35-3.03-7.84-7.6-8.31-3.58-.37-7.11-.26-10.78,0l.02,16.82c3.64.05,7.11.28,10.66-.16ZM215.8,115.01c-2.28-1.22-4.84-1.42-7.28-1.39l-7.71.1.03,18.78c4.06,0,7.48.16,11.02-.21,4.25-.44,7.6-3.35,8.41-7.04.9-4.14-.6-8.18-4.48-10.25Z"/>
      <path class="cls-1" d="M273.63,135.74c-6.09.39-11.16-2.67-13.56-8.09-3.31-7.46-1.5-19.49,7.4-23.19,3.53-1.47,7.73-1.38,11.27.04,1.75.7,2.87,2.03,4.7,3.29l.05-15.89,2.69-.24v43.25c-.83.14-1.77.19-2.6.17l-.26-4.5c-2.69,3.34-5.52,4.89-9.7,5.16ZM283.22,126.2c.62-4.51.13-8.71.24-13.09.03-1.13-.77-2.61-1.56-3.54-4.67-5.46-13.7-5.29-17.9.74-3.08,4.43-3.52,10.16-1.96,15.15,1.65,5.3,6.27,8.47,11.87,8.03,3.98-.31,8.7-2.79,9.31-7.29Z"/>
      <path class="cls-1" d="M328.14,130.39l-.07,16.96-2.55-.07v-43.02s2.47-.37,2.47-.37l.27,4.26c2.86-3.28,6.1-4.68,10.24-4.73,5.34-.07,10.19,2.54,12.61,7.48,2.45,5.01,2.63,10.85.82,16.09-2.23,5.8-7.63,9.22-13.79,8.69-4.02-.05-7.12-1.78-9.98-5.29ZM336.02,133.23c5.91,1.31,11.33-1.6,13.43-7.14,2.79-7.36.35-18.83-8.92-20.26-4.27-.66-8.1.65-10.79,3.82-1.02,1.2-1.68,2.76-1.67,4.32.02,3.83-.12,7.52.15,11.36.29,4.09,3.86,7.02,7.8,7.89Z"/>
      <path class="cls-1" d="M319.16,134.94c-.66.15-1.73.16-2.59.11l-.39-4.39c-2.63,3.48-5.76,4.84-9.69,5.08-5.9.37-11.04-2.54-13.45-8.11-2.95-6.81-1.81-15.51,3.53-20.72,4.88-4.75,14.7-4.89,19.69.94l.31-3.75,2.57-.03v30.87ZM316.32,125.54c.28-4.31.2-8.33.05-12.38-.09-2.71-2.19-4.68-4.37-5.95-5.88-3.43-13.63-1.11-16.3,5.27-2.06,4.92-2.19,10.57.27,15.21,2.43,4.58,7.24,6.54,12.22,5.63,3.85-.71,7.84-3.4,8.13-7.77Z"/>
      <path class="cls-1" d="M378.81,130.75c1.92-1.68,2.64-3.88,3.05-6.44l2.57-.15c-.41,6.84-5.57,11.46-12.26,11.62-5.29.12-10.01-2.09-12.6-6.9-2.61-4.84-2.64-10.56-.98-15.81,2.02-6.36,7.65-10.04,14.3-9.63,7.84.48,11.47,5.5,12.03,13.45l-24.56.03c-1.24,6.4,1.21,14.19,7.68,16.11,3.95,1.18,7.75.38,10.78-2.26ZM382.07,114.92c-.38-5.27-4.47-9.32-9.9-9.3-5.54.02-10.1,3.35-11.41,9.25l18.02.02,3.28.02Z"/>
      <path class="cls-1" d="M412.35,126.52c.11,3.58-1.65,6.39-4.78,7.77-4.45,1.96-9.79,1.99-14.28.11-4.55-1.9-5.39-5.87-5.72-10.05l2.64.23c-.04,3.57,1.41,6.59,4.69,8.01,3.51,1.52,7.89,1.48,11.31-.17,2.38-1.14,3.63-3.12,3.55-5.56-.07-2.19-1.8-4.47-4.26-5.13l-11.72-3.18c-4.32-1.17-6.12-5.84-4.37-9.85,2.53-5.81,11.4-6.12,16.6-4.27,3.71,1.32,5.64,4.96,5.51,8.86l-2.46-.07c-.07-3.5-1.66-6.14-4.9-7.18-2.95-.95-6.33-.99-9.17.28s-4.51,4.58-2.95,7.41c3.47,6.28,19.99,2.57,20.3,12.78Z"/>
      <path class="cls-1" d="M250.55,104.14l2.65-.08v31.03s-2.54.01-2.54.01l-.18-5.88c-2.35,4.69-6.39,6.66-11.42,6.57-5.57-.11-10.31-3.87-10.33-9.82l-.07-22.08c.86.14,1.55.18,2.57.18l.15,21.52c.03,4.72,3.97,7.89,8.35,7.93,7.13.07,10.81-5.55,10.81-11.66v-17.72Z"/>
      <path class="cls-1" d="M423.27,133.27c.42.08.42,1.49.1,1.95-1.42.56-3.42.76-4.96.03-.9-.43-1.58-1.93-1.58-3.02l-.03-25.98-3.22-.17.12-2.02h3.05s.09-10.46.09-10.46h2.66s.03,10.27.03,10.27l2.93.25.18,1.93-3.12.19v26.41c.75.93,2.45.77,3.76.6Z"/>
      <path class="cls-1" d="M136.59,167.41c21.77-35.11,17.06-79.97-11.37-109.82-11.79-12.38-26.99-21.2-43.81-25.41l-13.64-2.39C46.52,19.73,22.4,18.1.07,25.94l-.03-10.08c-.01-4.56,1.85-9.02,5.54-11.84C8.55,1.74,12.41,0,16.46,0h134.9c3.93,0,7.85,1.46,10.6,4.1,2.99,2.88,5.41,7.41,5.41,11.93l.02,135.47c0,7.19-4.63,12.87-11.08,14.99-2.31.76-4.45.93-6.88.93h-12.84Z"/>
      <path class="cls-1" d="M79.25,167.41l-64.57-.12c-5.91-.01-10.65-3.91-12.89-8.96-.91-2.06-1.75-4.28-1.76-6.66l-.02-61.93,3.26-3.96c4.52-.05,8.8-.28,13.28.12,32.41,2.88,60.15,23.89,71.91,54.08-.7,9.06-2.97,17.64-6.45,26-.48,1.14-1.22,1.85-2.77,1.43Z"/>
      <path class="cls-1" d="M127.31,167.31l-7.77.16c-1.35.03-2.6.19-4.08-.44,5.64-9.2,8.62-18.86,9.9-29.36l.03-13.32c-.91-9.84-3.68-19.08-8.39-27.79-3.15-21.3-13.76-39.66-30.05-54.41,25.72,8.57,44.96,29.8,52.3,55.05,1.47,5.74,2.52,11.14,2.92,16.96l.13,5.6c.38,16.43-5.44,33.92-14.99,47.55Z"/>
      <path class="cls-1" d="M88.59,133.98c-10.03-21.36-27.52-37.38-49.38-45.52-10.64-3.97-21.59-5.49-33.31-5.34,7.44-7.93,16.19-13.27,25.86-16.74,6.64-2.37,13.17-3.69,20.31-3.85,21.48,14.86,35.25,38.91,36.62,65.15.12,2.21.51,4.13-.11,6.29Z"/>
      <path class="cls-1" d="M108.87,84.7c-22.96-24.94-36.57-20.96-62.81-29.35-8.07-2.58-15.14-7.15-24.09-8.37,14.79-8.56,35.55-11.38,51.53-8.37,15.84,10,30.42,27.15,35.38,46.1Z"/>
      <path class="cls-1" d="M91.2,139.89c-.42-1.28.01-3.38.13-4.68.56-27.79-10.93-52.75-32.55-70.79,10.78,3.38,19.81,10.11,27.07,18.11,18.42,20.29,22.31,50.25,9.93,74.82-1.2-5.9-2.66-11.61-4.58-17.46Z"/>
      <path class="cls-1" d="M112.33,99.25c1.69,12.78.1,29.85-5.47,41.37.65-5.51,1.34-10.74,1.09-16.21-1.13-24.74-14.13-46.28-35.57-59.44,15.02,3.48,27.66,12.91,36.81,24.77,1.36,1.76,2.31,3.26,2.6,5.48l.53,4.03Z"/>
      <path class="cls-1" d="M96.94,167.28c12.48-15.43,18.74-30.65,20.83-49.95.39-3.63-.41-6.92.47-10.97,7.83,20.03,5.37,42.86-6.35,61.01l-14.95-.09Z"/>
      <path class="cls-1" d="M9.59,45.06l-9.59-.08.03-13.75c11.2-3.99,22.74-5.97,34.51-5.06,6.46.5,12.72,1.29,18.84,3.57-16,1.5-30.67,6.37-43.8,15.32Z"/>
      <path class="cls-1" d="M2,82.89c-.59.65-1.59.88-2,.42l.03-12.75c11.7-7.47,24.48-10.64,38.12-10.52l3.7.57c-15.34,3.06-29.22,10.58-39.84,22.28Z"/>
      <path class="cls-1" d="M38.41,55.04c-13.62-.11-26.33,2.79-38.07,9.54-.59-.73-.14-1.46.48-2.08,5.33-5.3,11.01-9.93,17.62-13.75,6.91,1.34,13.46,2.98,19.97,6.3Z"/>
      <path class="cls-1" d="M89.75,167.37l-5.65-.08c3-6.98,4.88-13.71,6.25-21.36,1.97,5.1,2.63,9.95,3.32,15.24l-3.92,6.2Z"/>
      <path class="cls-1" d="M5.54,47.69L.17,52.25,0,47.55c2.07-.06,3.21-.08,5.54.15Z"/>
    </g>
  </g>
</svg>