<?xml version="1.0" encoding="UTF-8"?>
<svg id="Layer_2" data-name="Layer 2" xmlns="http://www.w3.org/2000/svg" viewBox="0 0 352.56 290.28">
  <defs>
    <style>
      .cls-1 {
        fill: #fff;
      }
    </style>
  </defs>
  <g id="plovdiv">
    <g>
      <g>
        <path class="cls-1" d="M215.22,15.54c-37.16-6.55-80.24-4.08-115.23,11.1C38.99,53.1,12.82,112.1,12.44,176.26l-.29,48.53-9.25.44c-.42.02-2.54-1.12-2.89-1.39v-42.13c-.02-19.37,1.7-38.06,6.1-56.56C21.96,58.46,67.82,15.1,135.3,3.52c27.3-4.68,54.81-4.71,82.03.01,77.09,13.38,124.13,67.96,133.2,144.64.97,8.19,1.89,16.89,1.91,25.33l.12,51.01-12.17.3-.16-48.58c-.04-12.26-1.33-24.38-3.3-36.21-11.13-66.82-54.45-112.64-121.7-124.5Z"/>
        <path class="cls-1" d="M315.58,177.61c-.29-75.64-39.81-131.04-117.6-140.01-25.91-2.99-54.07-.66-78.32,7.93-36.19,12.82-62.61,40.35-74.25,76.93-5.22,16.41-8.23,33.5-8.35,51.1l-.36,51.06-9.47.71c-.76.06-2.76-2.33-2.75-3.13l.29-48.52c.12-20.64,3.64-39.98,10.25-58.91,14.38-41.18,44.97-70.42,86.69-82.89,30.8-9.21,68.28-10.05,99.61-2.61,61.25,14.54,96.82,60.18,104.72,121.6,1.5,11.66,1.98,22.64,1.95,35.2l-.09,36.97c0,1.36-4.2,2.48-5.26,2.34l-6.88-.9-.18-46.86Z"/>
        <path class="cls-1" d="M281.69,125.36c-17.04-44-56.76-63.93-102.69-64.61-52.49-.77-96.84,22.63-111.55,74.55-3.42,12.06-5.67,24.69-5.74,37.26l-.27,51.52-7.11,1.31c-1.03.19-5-1.11-5.08-2.29l-.03-41.13c0-12.5.8-23.6,2.82-35.17,8.94-51.06,42.86-86.89,94.07-95.75,31.37-5.43,67.57-2.81,96.17,12,44.66,23.13,61.15,68.93,61.1,117.25l-.05,44.38-12.17.15-.43-53.64c-.13-15.64-3.42-31.3-9.04-45.83Z"/>
        <path class="cls-1" d="M211.44,90.35c-22.56-7.37-46.32-7.48-68.97-.48-39.04,12.05-56,47.73-56.15,86.38l-.18,48.36-12.34-.02.14-51.05c.04-13.35,2.57-26.53,6.77-38.96,8.89-26.27,27.69-45.65,53.77-55.09,25.04-9.06,58.3-8.91,83.57.02,24.17,8.53,42.7,26.52,52.02,50.35,5.44,13.91,8.48,28.99,8.53,44.04l.18,50.7c-4.51.29-8.09.28-12.4-.03l-.19-49.67c-.14-37.25-17.35-72.32-54.76-84.54Z"/>
        <path class="cls-1" d="M235.8,144.94c-13.97-34.44-54.18-41.96-85.48-31.7-26,8.52-39.34,34.16-39.43,60.32l-.18,50.78-6.27.96c-1.29.2-5.07-.89-5.96-1.94l.11-49.58c.03-13.41,3.04-25.75,8.25-37.15,7.38-16.16,20.55-28.26,37.25-34.32,19.72-7.15,45.47-7.1,65.05.26,17.62,6.63,31.2,19.94,38.15,37.51,4.15,10.48,6.61,21.77,6.65,33.56l.15,50.11c-1.22.64-4.67,1.68-5.89,1.5l-6.4-.95-.16-50.73c-.03-9.87-2.19-19.66-5.83-28.62Z"/>
        <path class="cls-1" d="M217.1,176.33c0-15.98-6-32.39-21.89-39.18-19.73-8.44-47.19-3.38-55.83,18.41-2.29,5.77-3.92,12.76-3.92,19.33l-.02,49.24-7.88,1.32c-.93.16-4.4-1.33-4.4-2.64l.04-47.51c0-10.07,2.06-18.8,5.83-27.09,12.14-26.67,45.44-32.04,69.76-23.03,20.63,7.64,30.44,28.31,30.51,49.9l.15,47.14c0,.55-1.2,2.95-1.68,2.95l-8.1-.06c-.41,0-2.16-1.14-2.6-1.51l.02-47.27Z"/>
        <path class="cls-1" d="M187.17,161.58c-4.49-4.15-10.91-4.35-16.42-2.98-7.47,1.86-10.7,10.03-10.71,18.09l-.09,46.56c0,1.1-3.19,2.18-4,2.11l-8.11-.7-.03-50.7c0-12.23,7.7-24.67,20.32-27.41,7-1.52,14.76-1.2,21.29,1.67,11.5,5.05,15.48,17.23,15.44,29.37l-.13,47.1-10.54.65c-.2.01-1.6-2.09-1.6-2.78l-.12-47.29c-.01-5.03-2-10.65-5.29-13.7Z"/>
      </g>
      <g>
        <path class="cls-1" d="M164.59,261.37c.77,9.73,2.68,27.65-12.78,27.96l-13.57.27c-.68.01-2.7-.46-3.29-.71s-.76-1.85-.76-2.64l.17-36.48c10.38-.2,29.06-2.98,30.22,11.6ZM155.7,275.14l-.1-10.64c-.01-1.37-1.34-4.93-2.4-5.4-2.35-1.04-7.61-1.15-9.69-.6l-.06,22.23,7.33.23c1.91.06,4.93-3.79,4.91-5.82Z"/>
        <path class="cls-1" d="M85.72,287.91c-5.09,2.62-12.18,3.23-17.8.65-3.55-1.63-7.44-6.45-7.64-10.09-.51-8.9-2.66-25.57,9.02-28.41,2.46-.6,5.49-.96,8-1.01,7.53-.16,14.38,4.89,14.88,12.65.55,8.52,1.89,21.94-6.45,26.22ZM82.51,278c.92-9.94,2.99-20.61-6.7-20.78-2.24-.04-6.59,3.36-6.56,5.48l.17,14.16c.02,2.13,4.01,4.47,5.87,4.87s7.04-1.65,7.23-3.73Z"/>
        <path class="cls-1" d="M296.24,276.58c.04,7.74-5.35,12.97-13.08,13.63-7.68.66-15.42-3.94-15.5-12.3l-.16-16.12c-.08-8.33,6.89-12.89,14.52-12.9,7.54,0,14.11,4.74,14.14,12.56l.07,15.13ZM287.38,277.7c.18-6.15.16-12.66-.13-17.41-.1-1.68-4.29-3.39-5.86-3.17-1.31.18-4.67,1.86-4.74,3.35l-.62,13.47c-.15,3.34,1.32,6.59,3.76,7.77,2.07,1,7.48-.62,7.58-4Z"/>
        <path class="cls-1" d="M328.22,279.41c5.59,1.86,7.9,2.72,12.1,2.29,2.27-.23,4.06-6.19,3.22-7.41-4.45.45-7.72.82-11.44.05-4.78-.99-7.7-5.52-8.22-9.78-1-8.31,4.02-14.92,12.44-15.54,8.93-.65,16.11,4.3,16.13,12.62l.05,17.74c-1.99,5.09-5.25,9.51-10.82,10.47-6.19,1.06-11.09-.5-16.98-3.64l3.5-6.81ZM343.74,262.44c0-3.07-2.49-5.57-5.57-5.57s-5.57,2.49-5.57,5.57,2.49,5.57,5.57,5.57,5.57-2.49,5.57-5.57Z"/>
        <path class="cls-1" d="M16.14,277.95l-6.83.08-.59,11.03c-2.17.49-5.76.39-8.71-.43l.03-36.99c0-.37,1.55-2.32,1.68-2.32l15.73.47c8.37.25,12.8,7.19,12.6,14.59-.22,8.03-5.74,13.49-13.91,13.58ZM18.82,268.21c2.51-1.48,2.38-7.24-.09-9.01-2.01-1.44-8.09-1.94-9.43-.64l-.04,10.32c1.71,1.06,7.1.78,9.56-.67Z"/>
        <path class="cls-1" d="M120.88,249.7l9.36.35-13.16,38.79-7.57.94c-1.54.19-3.86-2.31-4.32-3.67l-12.25-36.26,9.34-.34,9.39,28.87,9.2-28.68Z"/>
        <path class="cls-1" d="M222.18,250.36l-13.2,38.43-5.97.99-3.36-.43c-.9-.12-2.31-2.7-2.7-3.83l-12.09-35.65,9.32-.38,9.43,28.51,8.95-27.37c2.29-1.27,7.23-1.1,9.61-.26Z"/>
        <path class="cls-1" d="M235.89,289.55c-1.02-.19-2.27-5.73-1.17-6.86l15.28-15.79c1.49-1.53,3.27-6.44,2-8.08-4.09-5.27-11.82,2.37-12.59,1.75l-2.17-1.76c-.74-.6-2.02-3.63-1.22-4.57,3.86-4.6,14.71-7.74,21.12-2.8,5.01,3.86,6.3,11.74,1.91,16.97l-10.15,12.08c-.5-.42.76.63,1.53,1.27l11.25.27c.55,1.51.18,6.34-.76,7.39l-25.03.13Z"/>
        <path class="cls-1" d="M58.27,281.24l.21,8.27-24.73-.13.07-39.41,5.5-.53c.53-.05,2.55.25,2.78.71.33.69.74,2.4.74,3.25l.08,27.48,15.35.36Z"/>
        <path class="cls-1" d="M309.15,289.23l-.07-29.06c-1.61,1.01-5.11,3.52-6.04,2.8l-3.75-5.17,7.16-5.78c2.81-2.27,8.05-3.42,11.38-1.56v38.51s-8.67.25-8.67.25Z"/>
        <rect class="cls-1" x="171.77" y="249.51" width="9.08" height="40.07"/>
      </g>
    </g>
  </g>
</svg>