<?xml version="1.0" encoding="UTF-8"?>
<svg id="Layer_2" data-name="Layer 2" xmlns="http://www.w3.org/2000/svg" viewBox="0 0 417.4 176.26">
  <defs>
    <style>
      .cls-1 {
        fill: #fff;
      }
    </style>
  </defs>
  <g id="szimpla">
    <g>
      <path class="cls-1" d="M18.75,92.52c4.77-3.35,7.2-4.07,12.94-5.58.62-.16,1.33-.32,1.95-.42l3.61-.54c1.97-.3,4.07-.22,6.07-.03,3.95.37,7.19,1.42,10.54,3.52,2.84,1.79,3.44,2.41,4.79,5.49,1.57,3.58,1.57,7.24-1.13,10.25-2.38,2.64-5.84,3.61-9.15,4.46-1.12.29-2.34.4-3.18-.62-.31-.38-.69-1.4-.6-1.92.18-1.14,1.18-1.95,2.26-2.14,2.29-.4,6.97-1.76,7.67-4.11.63-2.11-.56-5.48-1.96-6.4-4.64-3.04-8.82-3.97-14.37-3.59-3.9.26-9.18,1.61-12.72,3.24-2.9,1.33-7.23,4.75-9.28,7.12-4.87,5.6-7.27,10.3-9.63,17.31-.87,2.59-1.27,5.2-1.46,7.93-.57,8.57.25,16.98,6.2,23.65,4.32,4.84,10.54,7.3,16.77,8.58.84.17,1.67.33,2.53.44l3.92.49c2.02.25,11.49.36,13.36.18l1.29-.12,4.21-.29c.84-.06,1.84-.28,2.63-.53l3.94-1.28c1.24-.41,2.42-.89,3.64-1.38,15.25-6.13,25.62-16.64,27.74-33.46,1.47-11.63-3.42-21.66-11.1-30.01-4.35-4.73-10.76-9.74-16.23-13.08l-3.75-2.29-2.98-1.68c-2.62-1.48-3.48-1.68-5.93-3.76l-2.11-1.8c-3.7-3.15-7.33-7.25-9.59-11.56-2.5-4.77-2.89-10.4-1.05-15.48,2.12-5.87,8.04-11.6,13.1-15.09,1.21-.84,2.36-1.67,3.64-2.4,4.43-2.53,9.3-4.02,14.34-4.97,4.37-.82,10.67-.98,15.05-.38l2.1.28c3.5.47,9.47,1.93,12.71,3.26,2.09.86,3.98,2,5.84,3.22,1.52,1,2.82,2.26,3.98,3.65,1.57,1.89,2.12,5.62,1.16,7.44-1.15,2.17-2.92,4.04-4.95,5.32l-2.43,1.53c-1.11.69-2.5.34-3.18-.55-.74-.97-.79-2.58.37-3.37,2.56-1.72,4.92-2.75,5.89-5.92-.69-1.48-1.59-2.69-2.94-3.62-2.04-1.41-4.16-2.76-6.54-3.57-3.51-1.21-8.86-2.47-12.47-2.81l-3.16-.3c-7.35-.7-16.91,1.35-23.4,5.02-2.71,1.53-5,3.45-7.35,5.43-1.4,1.18-2.57,2.48-3.74,3.89-2.85,3.43-4.96,8.03-4.11,12.55.97,5.13,4.27,9.3,7.86,12.85,1.31,1.29,4.83,4.45,6.21,5.22l5.08,2.84c8.56,4.78,18.37,11.99,24.6,19.62,4.93,6.04,8.18,12.1,9.66,19.85.87,4.55.73,8.85-.07,13.39-.95,5.37-2.32,9.6-4.93,14.38-.74,1.35-2.79,4.41-3.71,5.48l-1.96,2.27c-4.25,4.91-11.62,9.55-17.58,12.18-3.08,1.36-6.14,2.47-9.36,3.49-1.85.59-2.75.84-4.71.98l-4.16.31-2.88.21h-8.91c-1.2,0-2.44-.13-3.63-.26l-2.32-.25c-1.42-.15-2.81-.4-4.21-.68-8.41-1.73-15.6-4.5-21.15-11.29-2.36-2.89-3.85-6.2-4.92-9.75-1.28-4.25-1.68-11.02-1.26-15.42.21-2.14.35-4.25.81-6.36,1.72-7.79,6.02-16.84,11.52-22.63,2.11-2.22,3.75-3.79,6.26-5.55Z"/>
      <g>
        <path class="cls-1" d="M141.37,126.92c-1.92.07-2.27-1.69-4.46-4.06-6.14-6.68-14.65-4.66-21.88-.97-2.42,1.23-4.66,2.55-6.86,4.09l-2.46,1.73c-1.1.77-2.48.84-3.37-.19-.82-.96-.85-2.31.07-3.33l1.61-1.8,4.64-5.23,2-2.25,2.2-2.47,3.21-3.62,1.22-1.37,2.25-2.53,2.56-2.89,1.73-1.95,3.8-4.29,5.16-5.81,1.13-1.26,8.74-9.89-2.63.81c-3.15.97-4.71,1.21-7.99,1.12-4.86-.14-7.38-.08-12.21-1.24-2.39-.58-4.65-1.41-6.74-2.66-1.16-.7-1.37-2.19-.74-3.26.59-.99,1.95-1.51,3.17-.9,3.44,1.73,5.54,2.29,9.39,2.84,3.31.47,9.14.74,12.35-.16,3.9-1.08,7.64-2.8,11.19-4.73l3.44-1.87c.43-.23,1.53-.24,1.99-.01.85.41,1.51,1.45,1.43,2.42-.06.63-.57,1.32-1.05,1.85l-25.78,29.05-1.86,2.1-5.16,5.82-2.34,2.63-.99,1.11-1.42,1.68c1.01-.03,1.62-.23,2.54-.53,14.71-4.75,20.86,4.72,21.84,5.19.08.04.35-.21.4-.29,3.17-5.19,6.15-10.48,8.83-15.93l2.17-4.42,3.27-6.97,3.79-8.42,3.75-8.75,1.18-2.79c.55-1.3,2.1-2.15,3.43-1.27.64.43,1.81,1.73,1.78,2.59l-2.38,10.66-.54,2.36-1.36,5.97-2.33,10.19-.98,4.29c-.71,3.11-2.25,8.6.48,11.05,2.37,2.12,6.56.56,8.89-1.52.99-.89,2.13-2.01,2.79-3.16l4.6-8.03,1.13-1.99,1.13-2,2.24-3.96,3.32-5.85,5.58-9.86c1.44-2.54,2.95-4.92,4.87-7.15,2.11-2.44,4.08-4.55,6.76-6.3,3.01-1.97,7.78-2.97,9.91.93l.85,1.55c2.69-2.11,3.62-2.82,6.95-3.61,5.54-1.31,10.87.35,12.86,6.12l.39.12c3.46-3.67,7.74-6.04,12.61-7.06,1.55-.32,3.38-.18,4.92.11,2.83.53,5.22,2.22,6.17,4.93,1.4,3.98.08,8.17-1.43,11.97l-2.13,5.38-1.92,4.96-5.75,14.84c-.33.85-1.34,4.57-.61,4.9.27.12.98.13,1.31.06,2.16-.43,4.13-1.19,5.7-2.75.34-.33.9-1,1.13-1.42l6.43-11.89,2.67-4.92,4.33-8,4.49-8.3.99-1.83,5.06-9.37c.66-1.23,1.27-2.55,2.15-3.56.76-.88,2.23-.55,2.87-.11,1.02.71,1.21,1.88.88,3.01l-4.08,13.93-.45,1.56c-.03.09.24.41.3.35s.35-.33.42-.44l3.14-4.57,2.77-4.03,5.43-7.92.85-1.23,4.09-5.85c1.9-2.72,5.4-3.82,8.61-3.37,2.07.29,3.98.88,5.83,1.75,4.57,2.16,5.61,6.96,4.91,11.58-.16,1.08-.26,2.47-.72,3.43l-2.67,5.51-1.03,2.11-5.67,11.54-5.31,10.88c-.4.82-.16,2.59-.05,3.48.27,2.21,1.5,3.91,3.41,4.97,2.84,1.57,6.98-4.59,8.27-6.49l1.38-2.02,2.03-2.98,18.21-26.67c.36-.53.49-1.16.61-1.8l5.81-31.56.93-5.07.42-2.27.57-3.08.57-3.07.45-2.43,2.08-11.33c.2-1.1.81-2.23,1.4-3.22,1.15-1.96,2.59-3.69,4.46-4.96,2.08-1.42,5.14-1.53,7.48-1.03l3.22.69c4.39.94,6.28,4.4,6.8,8.62.45,3.7.18,6.77-1,10.31-.66,1.99-1.67,3.78-2.7,5.59l-1.65,2.91-1.14,2-.94,1.66-2.28,4-.95,1.68-1.49,2.65-4.87,8.53-10.88,19.07-1.67,3.07c-.5.92-.59,2.35-.78,3.42l-.98,5.32-.44,2.37-.3,1.62-3.23,17.62c-.19,1.01-.18,1.81.32,2.76,1.03,1.96,4.36.77,5.43.1.63-.39,1.26-1.06,1.79-1.56l2.45-2.28,3.79-3.53,4.33-4.03c.53-.5,1.1-1.07,1.75-1.39.91-.44,2.11-.1,2.67.58,1.02,1.25.74,2.63-.31,3.61l-3.54,3.27-1.22,1.13-3.78,3.52c-1.7,1.58-3.28,3.12-5.09,4.63-1.08.91-2.88,1.28-4.28,1.7-2.22.67-4.67.21-6.53-1.14s-3.17-4.99-2.87-6.64l1.21-6.66,1.06-5.71,1.37-7.39c-.1-.15-.32-.45-.3-.42l-1.37,2.01-3.04,4.47-5.65,8.28-2.22,3.25-4.68,6.84c-1.27,1.85-4.28,4.78-6.31,5.92-1.8,1.01-4.1,1.26-5.91.25-3.76-2.09-6.23-4.39-6.77-8.98-.59-5.01.58-6.35,2.78-10.82l7.06-14.37,5.27-10.87c.69-1.42.95-6-1.04-8.06-2.16-2.23-7.28-2.95-9.49-.21-.69.86-1.33,1.84-1.97,2.78l-3.19,4.66-6.58,9.62-1.71,2.49-5.42,7.9-5.66,8.25c-.35.51-.87,1.19-1.07,1.85l-22.71,77.32c-.41,1.41-1.75,1.96-2.97,1.64s-2.09-1.59-1.65-3.08l13.94-47.49,3.57-12.14,4.05-13.78,3.12-10.68c.04-.13.03-.55.03-.66.01-.16-.64-.06-.72.08l-1.46,2.62-1.4,2.58-1.92,3.57-1.74,3.22-2,3.69-4.34,7.99c-1.1,2.02-2.92,3.67-4.92,4.7-3.44,1.77-10.5,3.77-12.1-1.5-1.25-4.11,1.13-9,2.7-13.06l8.49-21.86c.76-1.96,2.13-6.89-.2-8.16-1.2-.65-2.82-1.21-4.23-.93-5.09.99-9.52,3.97-12.25,8.37-.9,1.45-1.37,2.83-1.81,4.5l-9.21,34.34c-.37,1.39-1.53,2.08-2.8,1.89-1.14-.17-2.35-1.44-1.95-2.93l8.94-33.35c.82-3.07,1.07-3.09.68-6.3-.16-1.35-.63-2.65-1.44-3.8-.89-1.26-2.61-2.19-4.2-2.13-3.25.12-6.26,1.84-7.99,4.69-.86,1.42-1.27,2.97-1.74,4.63l-6.5,22.73-2.16,7.53-2.52,8.68c-.35,1.21-1.68,1.78-2.76,1.55-.92-.2-2.12-1.06-1.91-2.36.15-.92.43-1.94.7-2.87l2.11-7.33,3.74-13,1.17-4.08,3.15-10.93c.7-2.44.56-6.17-.1-8.74-.43-1.67-3.71.53-4.39,1.05-2.42,1.84-4.65,4.52-6.5,6.91-.28.37-.65.83-.88,1.24l-8.5,15.02-.65,1.15-10.26,18.03c-1.21,2.12-2.95,3.81-4.76,5.41-.91.8-2.09,1.49-3.16,2.02-3.25,1.61-8.69,1.3-11.65-.86-3.31-2.42-3.36-7.91-2.68-11.6l.78-4.19c.12-.67.23-1.36.38-1.98l.58-2.35.61-2.46c.16-.66-.19-.9-.38-.89-.07,0-.32.14-.35.2l-.44,1.06c-.19.46-.37.86-.58,1.27l-4.13,8.09-2.2,4.15-2.28,4.03-1.66,2.75-3.49,5.41c-.38.59-1.33,1.09-1.89,1.11ZM345.12,51.45l3.11-5.47,13.17-23.13c1.7-2.8,2.8-5.65,3.13-8.92,0-3.85.02-7.6-4.38-8.41l-2.42-.45c-3.27-.6-6.24,2.56-7.18,5.48l-7.52,40.89-.62,3.19c-.02.11.06.53.07.63s.5-.1.56-.21l2.07-3.59Z"/>
        <path class="cls-1" d="M397.36,107.75c-1.51.43-2.82.1-4.08-.36-3.44-1.23-4.31-1.59-5.5-5.95-5.11,5.19-14.29,12.49-21.38,6.6-.56-.46-1.1-.97-1.64-1.5-3.98-3.95-3.19-10.49-1.67-15.44,1.43-4.67,5.01-11.75,7.7-15.8l5.1-7.68c.66-.99,1.41-1.9,2.18-2.83,4.84-5.86,11.18-11.99,19.44-10.79,1.82.26,3.49,1.09,4.96,2.08l1.62,1.09,2.73-6.21c.26-.58.94-1.23,1.46-1.4.6-.2,1.8-.07,2.31.4,1.66,1.51.89,2.48.23,3.99l-7.52,17.25-.62,1.45-1.65,3.85-2.94,6.83-5.22,12.15c-.15.34-.12,1.23-.16,1.58-.19,1.46-.18,2.99.48,4.41.48,1.02,3.1,1.92,3.98,1.53,1.85-.83,3.35-1.92,4.8-3.27,1.51-1.4,2.93-2.81,4.27-4.36l3.28-3.79,3.97-4.71c.29-.35,2.28-1.25,3.63.83.28.43.4,1.73.06,2.17-3.25,4.21-6.8,8.14-10.57,11.84-.37.36-.76.74-1.1,1.01l-2.79,2.24c-1.55,1.24-3.33,2.21-5.37,2.79ZM376.1,104.39c1.82-.99,3.61-2.05,5.1-3.46l3-2.82c.41-.38.84-.91,1.24-1.33l1.13-1.22,1.96-2.25,13.48-31.26c-3.01-3.37-7.68-4.31-11.68-1.91-1.65.99-3.19,2.14-4.6,3.49-4.82,4.62-8.9,10.92-12.29,16.66-3.11,5.28-10.01,18.08-4.71,23.37,1.98,1.98,5.04,2,7.38.74Z"/>
      </g>
      <g>
        <path class="cls-1" d="M181.31,56.33c-2.06,1.62-5.14,3.45-7.46,4.53l-2.63,1.22c-.49.23-1.71.03-2.15-.34l-2.45-2.1c-1.74-1.49-3.31-3.17-4.44-5.15-.94-1.64-.63-4.2.53-5.22s3.27-1.68,4.62-1.67l6.59.05c.68,0,1.41.08,2.07.17l2.18.29c1.6.21,3.17.84,4.45,1.81,2.17,1.63.57,4.94-1.31,6.42ZM177.78,52.95c-1.17-.17-2.16-.28-3.32-.38l-3.2-.25c-.6-.05-4.99-.39-4.74.22.28.68,1.14,1.65,1.66,2.1l2.7,2.33c1.96-1.06,5.42-2.46,6.89-4.02Z"/>
        <path class="cls-1" d="M177.78,52.95c-1.47,1.55-4.93,2.96-6.89,4.02l-2.7-2.33c-.52-.45-1.39-1.42-1.66-2.1-.25-.61,4.14-.27,4.74-.22l3.2.25c1.16.09,2.14.21,3.32.38Z"/>
      </g>
    </g>
  </g>
</svg>