<?xml version="1.0" encoding="UTF-8"?>
<svg id="Layer_2" data-name="Layer 2" xmlns="http://www.w3.org/2000/svg" viewBox="0 0 282.62 367.7">
  <defs>
    <style>
      .cls-1 {
        fill: #fff;
      }
    </style>
  </defs>
  <g id="zsolnay">
    <path class="cls-1" d="M226.66,201.97c12.33,21.15,19.7,44.62,25.68,68.23,4.27,16.88,4.86,36.24,4.42,53.62-.38,14.69-8.9,28.78-14,43.89l-37-72.61c-8.22,29.12-32.76,49.28-61.93,50.02-31.31.79-57.74-19.12-65.98-50.3l-37.22,72.81c-5.08-15.05-13.29-28.56-13.91-43-.75-17.35.09-37.19,4.37-54.43,5.88-23.7,13.34-47.21,25.45-67.87l20-34.09-18.58,1.73,3.07-19.3,24.97,3.89-3.93-14.29,5.87-7.87c2.62-3.51-2.13-10.05-2.42-13.5-.71-8.5.51-17.33.93-26.19l-30.1-8.2c4.13-7.17,6.52-10.94,10.72-17.08l30.48,20-.41,19.79,9.29-20.79c1.45-3.24,7.64-2.48,10.12-6.23.79-1.19-.13-5.41-1.3-6.28-19.09-14.23-34.29-33.82-54.34-46.59C46.68,18.25,7.24,8.58.55,1.59c-7.18-7.5,57.94,14.05,64.12,17.83,22.54,13.77,38.04,35.47,59.3,50.32.93.21,3.39-.05,3.8.71l2.7,4.94,11.02-4.11,11.21,4.05,2.44-4.26c.63-1.09,3.72-.96,4.75-1.68,21.13-14.85,36.46-36.3,58.79-49.91,7.03-4.29,65-22.66,63.92-19-2.29,7.75-44.35,16.78-60.29,26.97-19.74,12.62-36.9,33.58-54.38,46.82-1.29.97-1.98,5.1-1.15,5.91,4.39,4.31,8.76,3.08,10.2,6.29l9.19,20.6c.26-7.11.01-12.39-.39-19.58l30.52-20.05c4.18,5.96,6.72,9.99,10.68,17.11l-30,8.2c.49,8.58,1.17,16.8,1.09,25.57-.04,3.6-5.57,9.98-2.6,14.05,1.6,2.2,4.7,5.94,5.92,7.94l-4.2,14.17,25.45-3.62,2.81,19.22-18.41-1.77,19.62,33.67ZM87.74,87.3l-19.35-13.23-4.47,7.66,23.82,5.57ZM219.42,81.73l-4.44-7.56-20.19,13.58,24.63-6.02ZM182.36,126l2.13-7.43-40.18-38.5-.15,44.39,38.2,1.54ZM103.72,106.51l25.94-24.64c-7.17,2.2-13.21,4.46-19.02,7.36-2.82,5.55-5.1,11.43-6.92,17.28ZM102.99,125.98l36.09-1.54-.17-44.29-38.69,37.16c-2.44,2.35-.65,7.83,2.77,8.67ZM172.29,89.2c-5.68-3.22-11.34-5.18-17.21-6.3l24.59,23.85c-1.66-5.91-3.99-12.7-7.38-17.55ZM92.11,117.58c.08-9.11.04-16.7-.4-24.57l-1.19,11.79c-.43,4.32-3.63,9.8,1.59,12.78ZM192.82,102.3l-1.19-9.28c-.92,9.18-1.51,17.45,1.55,25.38.67-5.69.32-10.78-.37-16.11ZM125.09,146.08l11.29-16.36-21.14.59,9.85,15.77ZM167.81,130.31l-20.67-.39,11.2,16.13,9.47-15.74ZM47.71,239.85l62.76-103.2c-2.32-.9-5.86-1.03-8.17-.3l-41.97,68.37c-4.55,11.91-9.27,22.57-12.62,35.13ZM146.11,170.78l9.87-19.62-11.62-15.64-.13,54.92c11.34-11.46-1.2-13.55,1.88-19.67ZM221.96,203.75l-40.88-67.58c-2.74-.34-5.66-.21-8.14.46l63.7,104.51c-4.45-12.14-7.5-25.51-14.69-37.39ZM95.38,137.56c-2.58-2.58-6.67.4-7.43,2.76-.56,1.74.47,4.05,1.86,6.37l5.57-9.13ZM139.05,190.24l-.08-54.47-11.42,15.55,10.15,20.35c-1.06,9.02-7.8,8.34,1.35,18.57ZM132.73,172.54l-17.03-31.74-60.14,186.11,77.17-154.37ZM223.07,318.4c1.78,3.59,1.98,5.8,4.99,8.11l-60.32-185.67c-6.59,11.62-11.67,21.49-16.87,32.03l72.21,145.53ZM82.8,159.99l-17.56-4.06-1.52,8.51c7.06-.81,11.67-.25,19.08-4.45ZM30.35,324.17l10.54,30.42,64.04-198.17-70.19,114.75-4.39,53.01ZM248.42,270.62l-70.2-114.63,64.14,198.31c16.69-36.86,8.09-44.08,6.06-83.68ZM219.84,164.17l-1.97-8.08-17.4,3.97c7.49,4.17,12.54,3.95,19.36,4.11ZM139.2,227.74l-.12-26.34-6.47-10.4-6.9,35.59,13.48,1.16ZM144.02,227.86l13.65-1.43-6.9-35.21c-2.23,3.23-6.34,8.21-6.39,11.53l-.35,25.11ZM120.94,225.39l4.14-25.9-11.81,23.11,7.67,2.79ZM170.16,222.55l-11.91-23.03,4.28,25.86,7.64-2.83ZM151.23,305.95l-.35-73.58-18.53.12-.21,73.98c0,1.98-4.27,6.06-6.17,5.74s-6.08-3.83-6.08-5.8l-.23-74.93c-2.17-1.9-5.58-3.05-8.88-3.55l-29.05,58.38c3.05,30.74,29.52,53.94,59.89,53.9s56.14-22.24,60.19-53.38l-29.22-59.11-8.93,3.09-.21,75.76c0,1.98-4.16,5.52-6.08,5.67s-6.12-3.7-6.13-6.29Z"/>
  </g>
</svg>