<?xml version="1.0" encoding="UTF-8"?>
<svg id="Layer_1" xmlns="http://www.w3.org/2000/svg" version="1.1" viewBox="0 0 1971 467.4">
  <!-- Generator: Adobe Illustrator 30.2.1, SVG Export Plug-In . SVG Version: 2.1.1 Build 1)  -->
  <path d="M1151.8,154.7h-21.7c0,0-.1,0-.2-.1h21.8q0,.1,0,.1Z"/>
  <path d="M1228.2,159.9c-1,.2-2,.4-3.1.6,1-.3,2-.5,3.1-.6Z"/>
  <path d="M1151.8,154.7h-21.7c0,0-.1,0-.2-.1h21.8q0,.1,0,.1Z"/>
  <path d="M1105.1,386.7c-7.9-1.8-12.4-13.1-12.4-21.7v-135s0-15.9,0-15.9c0-10.1-2.7-19.2-6.9-27.3-10.1-19.7-30.6-32.9-53.3-36.5-82.1-13.1-141.6,38.5-126.8,73.4,4.5,10.6,18.2,12.5,28.8,10.2,7.1-1.5,17.9-9.4,19.1-19,1.8-14.7-4.7-27.7-12.9-39.3,18.7-15.3,44-22.4,68.3-15.5,41.1,11.6,36.6,56.7,35.5,91.1-46.1,23.8-140.2,25.9-148.3,84.9-2.8,20.5,2.4,42.9,21.2,54.8,28.3,18,65.4,13.2,92.9-5.3,12.5-8.4,23.4-20.3,33.9-31,3.7,11.7,5.8,28,15.4,34.9,24.8,17.8,60.8,9.6,74-14.8-8.4,8.7-21.8,13.5-28.4,11.9h0ZM983.6,379.7c-21.3-.6-36-13.8-39.2-33.2-5-29.8,12.8-56.7,41.4-66.6l58.3-20.4v85.2c-12.8,21.2-33.6,35.8-60.5,35Z"/>
  <path d="M1288.4,364.2h55.1l-70.8-100,1.8-2.2,24.2-30.5h-10.7l-20.7,24.9-17.6-24.9-34.8-49.4c-1.9-2.7-2-6.4-1.2-10.1h-61.1l6.7,9.4,35.6,50.1,21.7,30.5,20.8,29.3-103.6,133.4c-21.5,27.7-52,37.4-87.3,39.5,38,11.2,73.8-8.1,96.7-38.1l98.7-127.8,46.6,65.9h0Z"/>
  <path d="M1129.9,154.6h21.8c0,.1-21.7.1-21.7.1,0,0-.1,0-.2-.1h0Z"/>
  <path d="M1228.2,159.9c-1,.2-2,.4-3.1.6,1-.3,2-.5,3.1-.6Z"/>
  <path d="M1225.1,160.5c1-.3,2-.5,3.1-.6-1,.2-2,.4-3.1.6Z"/>
  <path d="M1326.8,185c-.2.8-.4,1.5-.8,2.2-.2.3-.6.5-.9.4-.3,0-.4-.3-.5-.5-.6,1.1-1.3,2.1-2.1,3.1l-34.5,41.4h10.7l37-46.5h-8.9,0Z"/>
  <path d="M118.1,170.6s-34.6,11.1-34.6,68.1l-24.1,4.6,23.9-48.6,21.9-21.7,14.8-8.4"/>
  <polyline points="83.5 212.8 83.5 358.5 59.4 352.3 50.8 283.1 50.8 243.3"/>
  <path d="M83.5,343.9s-3.2,26.8,30.4,42.6l-25,2.1-21.8-17-1.4-14.6"/>
  <polyline points="83.5 218.2 83.5 .7 83.5 0 73 3.4 72.7 11.4"/>
  <path d="M13.2,30.6s18.1,3.3,18.1,27.1l10.9-18.8-8.2-11-17-3.4"/>
  <polyline points="47.6 147 82.4 173.9 82.4 206 67.2 209.2"/>
  <path d="M24.9,377.6s-12.1,10.1-21.4,14l21.9-4.4,2.8-7.8"/>
  <path d="M274.9,231.5c-18.3-67.7-91.4-102.2-154.6-71.5,0,0-8.7,4.5-18.2,12.3-1.8,1.5-3.5,3-5.3,4.6-5,4.7-9.8,10.2-13.2,16.4v-4.1c-.7.6-1.3,1.2-2,1.8V.7S0,26.5,0,26.5l22.3,7c4.8,1.5,9.1,12.8,9.1,19v310.5c0,14.7-12.9,18.7-24,27.6,19.8-2.9,37.3-9.8,56.7-2.4,65.2,25,152.6,25.2,193.8-37.6,23.2-35.4,28-78.9,17.1-119.1h0ZM222,302.9c-3.7,28.6-12.8,56.2-36.2,75.4-18.2,14.9-40.1,19-62.2,12.1-15.5-4.8-40.3-20.4-40.5-43.6-.5-46.2-6.8-95.2,1.8-141.5,3.2-17.2,16.7-28.8,33.3-34.7,21.3-7.6,47.6-5.8,63.5,5.6,41.3,29.6,46.1,81.7,40.3,126.7h0Z"/>
  <g>
    <path d="M1226.6,198.7c-20.9-28.3-9-37.3,20.8-44.1h-60.4v39.7l39.7,4.4h0Z"/>
    <path d="M1173.1,200.9c-18.9-26.5-30.1-39.4-59.9-46.3h79.6l.7,37.6-20.4,8.7h0Z"/>
  </g>
  <g>
    <path d="M1280.6,353.1c20.9,28.3,9,37.3-20.8,44.1h60.4v-39.7l-39.7-4.4h0Z"/>
    <path d="M1334.1,351c18.9,26.6,30.1,39.4,59.9,46.3h-79.6l-.7-37.6,20.4-8.7h0Z"/>
  </g>
  <g>
    <path d="M842.8,211.2c-.1-26.8-18.5-51.2-42.4-58.5-46.1-14-90.7,8-115.7,50.7-5.6-22.7-17.9-42.7-40.4-50.3-30.7-10.4-64.6-3.3-87.8,18.6l-26.2,28.9-1.4-32.9v44.2c5.7-18.4,46.9-57.1,85.2-33.5,13.8,8.5,22.8,28.3,22.8,45.1v40.3c.1,0,50,2.2,50,2.2l-.2-52.3c.7-33.8,51.2-50.9,79.2-39,17.8,7.6,26.6,24.7,26.6,43.5v139.4h50.3v-146.3h0Z"/>
    <g>
      <path d="M469.9,168.1c1.1,0,1.6.8,1.5,1.7.3,0,.5,0,.8,0,2.1,0,2,3,0,3.1-1,0-2.1.2-3.2.3.5.1,1,.3,1.6.5.9.3,1.1,1,1,1.7,5.4,3,9.1,7.9,9.1,18v169.3h50l-.2-217.5c-11.9,4.4-23,8-33.7,11.3,0,0-.1.2-.2.3-3.1,3.7-9.4,3.8-13.8,4.4-.2,0-.3,0-.5,0-2.1.7-4.2,1.5-6.4,2.2-5.1,1.8-10.3,3.6-15.5,5,.4.3.7.7.8,1.2,2.9-.5,5.7-1.4,8.7-1.5h0Z"/>
      <path d="M530.5,145.2s-66.3,22-81.1,23.5c0,0,31.3,2.5,31.3,30.1l39.7-37,10-16.5h0Z"/>
      <g>
        <path d="M480.9,357.5c0,25.5-1,32.8-30.9,39.7h60.4v-39.7h-29.6,0Z"/>
        <path d="M530.7,357.5c0,25.5,1,32.8,30.8,39.7h-60.5v-39.7h29.6Z"/>
      </g>
    </g>
    <g>
      <polygon points="637 230.5 637.1 362.7 686.9 362.7 686.8 230.5 637 230.5"/>
      <g>
        <path d="M637.1,357.5c0,25.5-1,32.8-30.8,39.7h60.5v-39.7h-29.6Z"/>
        <path d="M686.9,357.5c0,25.5,1,32.8,30.8,39.7h-60.5v-39.7h29.6Z"/>
      </g>
    </g>
    <g>
      <path d="M792.5,357.5c0,25.5-1,32.8-30.8,39.7h60.5v-39.7h-29.6Z"/>
      <path d="M842.8,357.5c0,25.5,1,32.8,30.8,39.7h-60.5v-39.7h29.6Z"/>
    </g>
    <path d="M530.5,218.2s3.7-38.2,53.1-47l-2.9-6.2-36.5,22-20.3,17.7-2.4,24.1"/>
    <path d="M579.4,172s15.8-4.3,34.6,6.3l-12.2-16.9s-16.8,2-17.2,2.2-4.9,4.3-4.9,4.3"/>
    <path d="M576.5,157.6s-35.3,16.1-59.2,60.9l7.2-9.6,17.5-20.8,20.2-17.4"/>
    <path d="M686.7,227.6s-.1-52.8,55.7-56.7l-14.3-3.5-25.2,14.6-16.1,19.2-7.2,17.8v9.6"/>
  </g>
  <g>
    <path d="M1940.2,211.2c-.1-26.8-18.4-51.2-42.4-58.5-46.1-14-90.7,8-115.7,50.7-5.6-22.7-17.9-42.7-40.4-50.3-30.7-10.4-64.6-3.3-87.8,18.6l-26.2,28.9-1.4-32.9v44.2c5.7-18.4,46.9-57.1,85.2-33.5,13.8,8.5,22.8,28.3,22.8,45.1v40.3c.1,0,50,2.2,50,2.2l-.2-52.3c.7-33.8,51.2-50.9,79.2-39,17.8,7.6,26.6,24.7,26.6,43.5v139.4h50.3v-146.3h0Z"/>
    <g>
      <path d="M1567.3,168.1c1.1,0,1.6.8,1.5,1.7.3,0,.5,0,.8,0,2.1,0,2,3,0,3.1-1.1,0-2.1.2-3.2.3.5.1,1,.3,1.6.5.9.3,1.1,1,1.1,1.7,5.4,3,9.1,7.9,9.1,18v169.3h49.9l-.2-217.5c-11.9,4.4-23,8-33.7,11.3,0,0,0,.2-.2.3-3.1,3.7-9.3,3.8-13.8,4.4-.2,0-.3,0-.5,0-2.1.7-4.2,1.5-6.4,2.2-5.1,1.8-10.3,3.6-15.5,5,.4.3.7.7.8,1.2,2.9-.5,5.7-1.4,8.7-1.5h0Z"/>
      <path d="M1627.8,145.2s-66.3,22-81.1,23.5c0,0,31.3,2.5,31.3,30.1l39.7-37,10.1-16.5h0Z"/>
      <g>
        <path d="M1578.3,357.5c0,25.5-1,32.8-30.8,39.7h60.4v-39.7h-29.6Z"/>
        <path d="M1628.1,357.5c0,25.5,1,32.8,30.8,39.7h-60.4v-39.7h29.6Z"/>
      </g>
    </g>
    <g>
      <polygon points="1734.4 230.5 1734.4 362.7 1784.3 362.7 1784.2 230.5 1734.4 230.5"/>
      <g>
        <path d="M1734.5,357.5c0,25.5-1,32.8-30.8,39.7h60.4v-39.7h-29.6Z"/>
        <path d="M1784.3,357.5c0,25.5,1,32.8,30.8,39.7h-60.4v-39.7h29.6Z"/>
      </g>
    </g>
    <g>
      <path d="M1889.9,357.5c0,25.5-1,32.8-30.8,39.7h60.4v-39.7h-29.6Z"/>
      <path d="M1940.2,357.5c0,25.5,1,32.8,30.8,39.7h-60.4v-39.7h29.6Z"/>
    </g>
    <path d="M1627.8,218.2s3.7-38.2,53.1-47l-2.9-6.2-36.5,22-20.3,17.7-2.4,24.1"/>
    <path d="M1676.8,172s15.8-4.3,34.6,6.3l-12.2-16.9s-16.8,2-17.2,2.2-4.9,4.3-4.9,4.3"/>
    <path d="M1673.9,157.6s-35.3,16.1-59.2,60.9l7.2-9.6,17.5-20.8,20.2-17.4"/>
    <path d="M1784.1,227.6s-.1-52.8,55.7-56.7l-14.3-3.5-25.2,14.6-16.1,19.2-7.2,17.8v9.6"/>
  </g>
  <path d="M1044.1,354.7s2.3,48.3,48.5,47.6c0,0,28.7-.2,40.9-27.5l-11,11.4-18.9,7.8-6.6,1.7-15.9-7.6-.3-39.8-15.2-3.7"/>
  <path d="M1092.6,363.9s-.9,32.3,29.1,19.4h1.7c0,.1-8.6,8.4-8.6,8.4,0,0-10.4-.5-10.7-.5s-9.9-6-9.9-6l-8-13.1,6.5-8.2h0Z"/>
  <path d="M1338.4,181.5c16.9-24.5,39-22.7,51-26.9h-58.4l-.8,23.5,8.2,3.4h0Z"/>
  <path d="M1320.5,192.5c19.1-26-13-32.7-29.8-37.9h69l-24.8,31.3-14.4,6.6Z"/>
  <g>
    <g>
      <path d="M333.1,168.1c1.1,0,1.6.8,1.5,1.7.3,0,.5,0,.8,0,2.1,0,2,3,0,3.1-1,0-2.1.2-3.2.3.5.1,1,.3,1.6.5.9.3,1.1,1,1,1.7,5.4,3,9.1,7.9,9.1,18v169.3h49.9v-217.5c-11.9,4.4-23.2,8-33.9,11.3,0,0-.1.2-.2.3-3.1,3.7-9.4,3.8-13.8,4.4-.2,0-.3,0-.5,0-2.1.7-4.2,1.5-6.4,2.2-5.1,1.8-10.3,3.6-15.5,5,.4.3.7.7.8,1.2,2.9-.5,5.7-1.4,8.7-1.5h0Z"/>
      <path d="M393.9,145.2s-66.5,22-81.3,23.5c0,0,31.3,2.5,31.3,30.1l39.7-37,10.2-16.5h0Z"/>
      <g>
        <path d="M344.1,357.5c0,25.5-1,32.8-30.9,39.7h60.5v-39.7h-29.6Z"/>
        <path d="M393.9,357.5c0,25.5,1,32.8,30.9,39.7h-60.5v-39.7h29.6Z"/>
      </g>
    </g>
    <circle cx="368.5" cy="58" r="31.5"/>
  </g>
  <g>
    <g>
      <path d="M1429.4,168.1c1.1,0,1.6.8,1.5,1.7.3,0,.5,0,.8,0,2.1,0,2,3,0,3.1-1.1,0-2.1.2-3.2.3.5.1,1,.3,1.6.5.9.3,1.1,1,1.1,1.7,5.4,3,9.1,7.9,9.1,18v169.3h49.9v-217.5c-11.9,4.4-23.2,8-33.9,11.3,0,0,0,.2-.2.3-3.1,3.7-9.3,3.8-13.8,4.4-.2,0-.3,0-.5,0-2.1.7-4.2,1.5-6.4,2.2-5.1,1.8-10.3,3.6-15.5,5,.4.3.7.7.8,1.2,2.9-.5,5.7-1.4,8.7-1.5h0Z"/>
      <path d="M1490.2,145.2s-66.5,22-81.3,23.5c0,0,31.3,2.5,31.3,30.1l39.7-37,10.2-16.5h0Z"/>
      <g>
        <path d="M1440.4,357.5c0,25.5-1,32.8-30.8,39.7h60.4v-39.7h-29.6Z"/>
        <path d="M1490.2,357.5c0,25.5,1,32.8,30.8,39.7h-60.4v-39.7h29.6Z"/>
      </g>
    </g>
    <circle cx="1464.8" cy="58" r="31.5"/>
  </g>
  <path d="M105.8,178.3s10.1-10.2,34.4-12.1l-12.6-2.9-13,5.1-9.3,5.9"/>
</svg>