<?xml version="1.0" encoding="UTF-8"?>
<svg id="Layer_2" data-name="Layer 2" xmlns="http://www.w3.org/2000/svg" viewBox="0 0 391.24 230.95">
  <defs>
    <style>
      .cls-1 {
        fill: #fff;
      }
    </style>
  </defs>
  <g id="aaruhus">
    <g>
      <path class="cls-1" d="M189.67,125.97c-2.1,12.13-9.03,21.8-21.55,19.81-4.23-.67-8.65-3.71-11.3-8.27-8.76-15.08-7.11-52,14.1-52.31,6.49-.1,12.14,3.49,15.31,9.77,4.76,9.42,5.26,20.47,3.43,31ZM172.14,138.16c2.84-.35,5.56-2.59,6.99-5.72,5.85-12.83,3.8-40.8-8.74-39.37-2.58.29-5.07,2.14-6.55,4.79-5.99,10.78-5.2,41.96,8.3,40.29Z"/>
      <path class="cls-1" d="M104.02,145.19c-1.4,0-3.49-.57-4-1.51-.56-1.04-.79-3.98.06-4.97l20.69-24.05c4.05-4.71,8.48-12.79,4.68-18.26-4.08-5.86-12.81-3.33-18.52-.31-1.76.93-4.18.82-5.23-.71-1-1.45-.71-4.38.9-5.43,6.22-4.07,13.53-5.63,20.67-4.2,7.58,1.51,12.61,7.8,11.97,15.76-.43,5.3-2.51,10.31-5.99,14.46l-18.16,21.65,21.29-.05c2.4,0,4.19,1.67,4.14,3.73-.05,2.3-1.62,3.89-4.1,3.89h-28.4Z"/>
      <path class="cls-1" d="M269.43,142.83c-1.01,2.29-3.27,2.91-4.97,2.68-1.42-.2-4.32-2.46-3.44-4.38l21.52-47.16-24.38-.05c-2.64,0-4.22-1.46-4.17-4.07.04-1.99,1.69-3.76,4.2-3.76l30.09.04c.98,0,2.52.87,3.09,1.52.65.74.99,3.33.53,4.37l-22.47,50.82Z"/>
      <path class="cls-1" d="M223.97,142.45l-.24-45.04-10.46,8.54c-1.45,1.18-4.09.88-5.19-.35-1.04-1.15-1.42-4.26.17-5.58l17.52-14.53c.88-.73,3.64-.31,4.42.06.9.43,1.88,1.93,1.88,3.36l-.03,53.91c0,1.58-2.71,2.73-3.9,2.79-1.29.07-4.17-.97-4.19-3.15Z"/>
      <path class="cls-1" d="M360.55,123.11l-51.22.1c-1.94,0-2.86-2.41-2.88-3.9-.02-1.74,1.54-3.65,3.73-3.65l48.42-.04c1.84,0,3.52,1.41,4.01,2.63s-.03,4.85-2.05,4.86Z"/>
      <path class="cls-1" d="M81.56,123.24l-50.16-.04c-2,0-2.78-3.07-2.58-4.44.25-1.67,1.89-3.11,3.97-3.11l48.32-.02c2.07,0,3.75,1.54,3.99,3.24.27,1.89-.88,4.37-3.54,4.37Z"/>
      <g>
        <path class="cls-1" d="M196.48,66.59l-14.79-19.06c-2.55-3.28-6.26-5.06-10.58-4.41l-.21,22.4c-.01,1.52-2.55,2.65-3.7,2.65-1.27,0-4.21-.85-4.21-2.74l-.07-53.75c0-1.52,1.26-3.57,2.82-3.6,6.67-.14,12.94-.13,19.38.13,9.51,1.3,15.73,8.76,14.35,18.64-.59,6.94-5.87,11.98-13.23,13.99l16.25,19.89c1.48,1.81,2,4.37.44,6.15-1.28,1.46-4.78,1.85-6.44-.29ZM191.39,25.46c-.06-5.29-3.18-9.48-8.46-9.67-3.91-.14-7.65-.1-11.9-.03v19.79c7.78.6,20.47.34,20.36-10.1Z"/>
        <path class="cls-1" d="M266.6,65.3c0,1.97-2.7,2.77-3.85,2.85-1.26.09-4.14-.99-4.15-2.69l-.18-23.78h-26.9s-.13,23.32-.13,23.32c0,1.84-2.43,3.12-3.77,3.16-1.56.04-4.33-1.05-4.33-3.24l-.02-53.82c0-1.99,2.37-3.43,3.8-3.45,1.88-.02,3.56.93,4.37,2.78l.04,23.45h26.94s.14-23.34.14-23.34c0-1.59,2.49-2.81,3.71-2.87,1.31-.06,4.3.83,4.3,2.76l.02,54.86Z"/>
        <path class="cls-1" d="M332.9,12.17l.14,28.98c.05,11.12-1.22,23.72-14.07,26.64-8.81,2-21.3.79-25.69-8.29-1.66-3.42-2.78-7.46-2.77-11.4l.04-37.56c0-1.65,2.53-2.8,3.72-2.89s4.23.88,4.23,2.28l.18,37.56c.02,3.95,1.47,8.2,4.39,10.76,4.62,4.06,11.7,4.05,16.59.44,3.28-2.42,4.97-6.74,4.97-10.9V13.19c0-2.75.48-5.01,3.28-5.4,2.61-.36,4.97.95,4.99,4.39Z"/>
        <path class="cls-1" d="M389.68,58.52c-4.74,11.91-22.8,11.83-32.51,7.37-2.85-1.31-4.49-4.88-2.31-7.31,3.7-4.11,9.66,4.87,20.27,2.23,3.86-.96,6.67-3.46,7.45-7.15,3.36-15.88-29.77-10.06-27.91-32.18.56-6.68,5.49-12.12,12.51-13.64,7.36-1.59,24.77.24,21.98,7.72-2.44,6.55-10.7-3.39-20.13-.43-2.99.94-5.3,3.2-5.89,6.06-2.3,11.19,17.99,10.8,25.34,20.88,3.39,4.66,3.48,10.68,1.19,16.44Z"/>
        <path class="cls-1" d="M88.74,64.88c-1.05,2.65-2.47,3.44-4.76,3.22-1.41-.14-4.15-2.02-3.2-4.41L104.93,3c.95-2.39,2.63-3.4,4.83-2.83,2.45.63,3.44,3.01,2.41,5.61l-23.42,59.1Z"/>
        <path class="cls-1" d="M148.66,64.08c.69,1.75-1.55,3.79-2.71,3.91-1.32.13-3.93.22-4.57-1.39L117.26,5.96c-.96-2.42-.29-4.68,1.76-5.57,2.57-1.11,4.51.2,5.56,2.86l24.07,60.83Z"/>
        <path class="cls-1" d="M7.62,66.37c-.75,1.89-3.33,1.7-4.64,1.61-1.16-.07-3.5-2.06-2.87-3.66L24.52,2.74c.97-2.46,3.12-3.26,5.34-2.33,2.02.84,2.78,3.01,1.79,5.5L7.62,66.37Z"/>
        <path class="cls-1" d="M68,63.48c1.04,2.62-1.7,4.53-3.12,4.61-2.19.12-3.66-.6-4.59-2.94L36.54,5.33c-.86-2.18.46-4.43,2.18-5.06,1.53-.56,4.12-.15,4.95,1.96l24.33,61.26Z"/>
      </g>
      <g>
        <path class="cls-1" d="M227.82,191.9l8.81.04c.67,0,1.77.87,1.77,1.43-.02,3.74-10.8,1.92-13.55,1.7l-.49-6.82-6.12.07-3,6.18c-.26.54-1.79.87-2.34.82-.67-.05-1.08-2.07-.79-2.7l10.48-22.36,13.98-.08c.62,0,1.66.78,1.83,1.3s-.69,1.95-1.33,1.96l-9.13.16-.05,7.18,7.98.19c.61.01,1.59.76,1.77,1.25s-.57,1.95-1.12,1.96l-8.57.1-.12,7.63ZM224.67,185.18l-.55-10.62-4.66,10.27c1.82.25,2.92.31,5.21.35Z"/>
        <path class="cls-1" d="M154.76,194.83l-6.91-8.65c-.7-.88-2.63-1.46-3.77-1.22l-.1,8.33c0,.69-.76,1.95-1.38,2.08s-2.04-.96-2.04-1.67l.04-23.15c3.57-.44,7.04-.57,10.39.02s4.93,3.63,4.94,6.51c.01,3.23-1.72,5.38-5.3,6.99l6.68,8.3c.35.44.11,2.11.07,2.57-.05.57-2.18.44-2.63-.11ZM150.8,180.64c1.08-.5,1.79-3.06,1.63-4.09s-1.71-2.87-2.81-2.91l-5.64-.21.06,8.22c2.47.1,4.31.12,6.75-1.01Z"/>
        <path class="cls-1" d="M182.38,176.02c2.4,7.03,1.2,18.96-7.77,19.48-3.15.18-6.52-1.3-8.05-4.34-2.45-4.85-2.57-10.57-.69-15.56,1.41-3.73,4.62-5.72,8.15-5.78,3.74-.06,7,2.23,8.35,6.19ZM178.2,175.36c-.7-1.32-2.92-2.46-4.2-2.45-5.57.06-7.91,10.51-4.05,17.02.85,1.42,3.2,2.58,4.47,2.42,5.92-.75,7-10.9,3.77-16.99Z"/>
        <path class="cls-1" d="M301.23,191.7c.71.83,1.19,2.17.63,2.97-.51.74-2.4.58-2.99-.13l-8.27-9.77c-.55-.65-2.33,1.79-2.3,2.68l.17,5.8c.02.74-.95,2.13-1.59,2.13-.92,0-1.95-1.12-1.95-2.21l.02-21.31c0-.77,1.34-1.89,1.99-1.84s1.38,1.46,1.4,2.23l.28,9.35,10.07-10.96c.52-.56,2.47-.59,2.78,0s.02,2.16-.48,2.68l-8.25,8.53,8.48,9.87Z"/>
        <path class="cls-1" d="M126.9,172.57c0-1.23.77-2.52,1.47-2.57,1.28-.09,2.19.92,2.18,2.3l-.15,15.09c-.05,5.23-3.7,8-8.49,8.15s-8.96-2.33-9.03-7.57l-.21-15.72c0-.68.54-1.81,1.01-2.11s2.37.17,2.37.82l.11,15.09c.03,3.73,1.9,5.93,4.83,6.19,3.19.28,5.93-1.85,5.92-5.51l-.02-14.18Z"/>
        <path class="cls-1" d="M93.59,184.25l.02,7.56,9.11.21c.64.01,1.36,1.55,1.14,2.03-.27.58-1.47,1.22-2.14,1.23l-9.48.15c-.86.01-2.31-1.27-2.31-2.18l.14-22.9,12.18-.21c.55,0,1.62.9,1.67,1.44.07.78-.81,1.93-1.63,1.93l-8.75.06.07,7.22,7.83.16c.64.01,1.63.85,1.77,1.35.17.6-.88,1.91-1.52,1.92l-8.11.04Z"/>
        <path class="cls-1" d="M272.06,194.43c-5.56,3.1-14.32-.69-11.62-3.18,1.81-1.67,3.2,1.66,8.89.83,1.18-.17,2.66-2.03,2.78-3.09s-.86-3.28-1.83-3.74l-6.04-2.86c-2.61-1.24-3.88-3.68-3.71-6.37.18-2.89,1.98-5.2,5.2-5.9s10.46.18,9.32,3.23c-.81,2.14-3.56-.35-8.15-.27-1.03.02-2.68,1.84-2.8,2.85s.98,3,1.91,3.42l5.34,2.41c2.37,1.07,4.21,3.21,4.4,5.49.23,2.89-.76,5.56-3.67,7.18Z"/>
        <path class="cls-1" d="M196.51,184.96l-.08,8.83c0,.62-.97,1.59-1.49,1.62-.62.04-2.08-.99-2.08-1.71l.08-23.37,7.28-.14c3.65-.07,6.78,2.13,7.45,5.42s-.44,6.88-3.94,8.55c-1.74.83-4.15.7-7.21.79ZM202.83,180.9c1.08-.53,1.65-3.28,1.4-4.31-.78-3.29-4.67-3.44-7.78-3.09l.05,8.23c2.16.18,4.06.29,6.33-.82Z"/>
        <path class="cls-1" d="M250.77,192.9c0,1.02-.87,2.43-1.5,2.47s-1.97-.95-1.97-1.62v-23c.64-.31,1.87-.65,2.44-.65s1.01,1.58,1.01,2.19l.03,20.6Z"/>
        <g>
          <path class="cls-1" d="M277.51,228.76c-3.78,2.44-8.3,2.06-12.46,1.43l-.04-23.9c2.21-1.47,4.92-1.01,7.39-.73,5.37.62,9.16,3.82,9.84,9.45.59,4.86-.13,10.79-4.73,13.76ZM276.98,224.4c2.58-3.85,2.52-9.64-.17-13.14-1.93-2.51-5.19-2.17-8.37-2.26v18.03c3.16.47,6.57.31,8.54-2.63Z"/>
          <path class="cls-1" d="M374.99,228.22c-3.81,3.17-8.72,2.52-13.23,1.98l-.03-24.31c6.22-1.39,14.46-.36,16.65,6.65,1.62,5.2,1.15,11.89-3.4,15.68ZM373.75,224.43c2.52-3.75,2.47-9.24.12-12.81-1.93-2.92-5.98-3.07-8.68-1.76l.04,17.18c3.12.43,6.58.28,8.51-2.6Z"/>
          <path class="cls-1" d="M145.52,222.25c-1.1-1.42-2.82-2.17-4.36-1.95l-.15,8.15c-.02.86-.73,2.2-1.43,2.26s-2.04-.97-2.04-1.71l.11-22.9c3.6-1.48,7.07-1.08,10.65-.07,3.13.88,4.83,3.8,4.74,6.78-.1,3.2-2.07,5.39-5.53,6.64l6.69,8.09c.42.51.6,1.81.34,2.39s-2.37.89-2.77.38l-6.25-8.05ZM146.28,216.77c2.14-.13,3.33-2.63,3.12-4.51-.17-1.51-1.86-3.33-3.6-3.36l-4.78-.08.02,8.28,5.23-.32Z"/>
          <path class="cls-1" d="M207.32,225.27c-1.62,3.9-5.02,5.77-8.45,5.64-3.69-.14-6.61-2.44-7.99-6.24-1.5-4.12-1.41-8.83-.11-13.05,1.19-3.87,4.39-6.19,7.91-6.4,3.75-.22,7.13,1.83,8.65,5.63,1.78,4.46,1.92,9.74-.02,14.41ZM203.59,211.13c-.93-1.78-3.16-2.83-4.92-2.66-5.19.5-6.95,9.9-3.85,16.49.75,1.6,2.86,2.83,4.45,2.82,5.95,0,7.49-10.57,4.32-16.66Z"/>
          <path class="cls-1" d="M180.93,228.06c0,1.07-.33,2.25-.82,2.49-.58.29-2.5-.26-2.51-.98l-.14-9.66-11.07-.17-.15,8.68c0,.58-.39,2.21-.95,2.15-.61-.07-1.83-.36-2.45-.57l-.04-22.52c0-.69.88-1.97,1.49-2.07.81-.13,2,1.14,2,1.93v9.1s11.19.01,11.19.01v-8.95c0-.77.92-2.05,1.55-2.13.81-.11,1.92,1.14,1.92,2.08l-.03,20.6Z"/>
          <path class="cls-1" d="M28.98,227.64c.44.52.56,2.19.26,2.6-.37.52-2.19.55-2.7-.05l-8.73-10.23c-1.13.5-2.14,2.15-2.12,3.1l.14,5.47c.02.78-.78,2.1-1.46,2.16-1.2.11-2.05-.91-2.05-2.37l.05-21.23c0-.58,1.02-1.62,1.5-1.71.58-.11,1.79.88,1.81,1.55l.24,10.22,10.12-11.12c.44-.48,1.99-.62,2.5-.31s.69,2.1.25,2.55l-8.68,9,8.85,10.38Z"/>
          <path class="cls-1" d="M127.5,206.42c.73,1.78.19,3.49.15,5.04l-.26,11.79c-.11,5.16-4.01,7.58-8.57,7.69s-8.87-2.46-8.92-7.81l-.16-15.61c0-.77.93-2.04,1.56-2.12.86-.12,1.99,1.14,1.99,2.07l.04,15.03c0,3.14,2.72,5.22,5.19,5.23,3.23,0,5.49-2.19,5.49-5.74v-14.5c0-.54.59-1.67.99-1.98.48-.37,2.23.25,2.49.9Z"/>
          <path class="cls-1" d="M252.92,219.87l-7.92.32-.02,7.01h8.37c.65,0,1.89.86,1.98,1.48.1.72-1.24,2-1.97,1.98l-11.86-.31v-24.52c4.32-.6,11.55-2.03,13.84,1,.36.48-.74,2.14-1.4,2.14l-8.94.04v7.29s7.73.02,7.73.02c.62,0,1.75.96,1.81,1.55s-.94,1.96-1.63,1.99Z"/>
          <path class="cls-1" d="M55.12,207.09l-.13,16.01c-.04,5.29-4.21,7.91-8.93,7.83s-8.47-2.54-8.52-7.76l-.14-15.78c0-.68,1.06-1.94,1.69-2.03.72-.1,1.85,1.24,1.84,2.09l-.03,14.57c0,3.51,2.3,5.75,5.53,5.7,2.93-.05,5.19-2.41,5.19-5.88v-14.39c0-.7.95-1.95,1.55-2.09s1.96,1.03,1.95,1.72Z"/>
          <path class="cls-1" d="M348.18,223.78l-7.48-.03-1.84,5.76c-.15.47-1.13,1.23-1.56,1.2-.53-.03-1.41-.73-1.92-1.41l6.95-22.2c.26-.83,1.2-1.86,1.84-1.89.92-.05,2.06.87,2.36,1.85l6.56,21.23c.18.59-.34,2.22-.91,2.33s-2.1-.34-2.29-1l-1.71-5.85ZM347.2,220.47l-2.73-8.66c-1.49,3.72-1.97,5.5-2.78,8.87l5.51-.22Z"/>
          <path class="cls-1" d="M301.52,230.29c-3.15,1.01-7.59.74-10.32-.92-.51-.31-.76-2.28-.31-2.67,2.04-1.76,4.26,2.3,9.27.55,1.04-.36,2.36-2.09,2.46-3.06s-.99-3.03-1.89-3.45l-6.05-2.85c-2.54-1.2-3.91-3.58-3.82-6.23s1.7-5.12,4.75-6.02c3.74-1.1,10.97.14,9.68,3.32-1,2.46-3.9-1.34-8.84-.18-.88.21-2.14,2.05-2.11,2.93s1.06,2.5,1.88,2.89l5.98,2.86c2.63,1.26,4.13,3.93,3.92,6.71-.19,2.56-1.67,5.17-4.61,6.12Z"/>
          <path class="cls-1" d="M232.74,207.62l-6.97,22.01c-.21.66-1.86,1.26-2.35,1.01s-1.26-1.1-1.44-1.68l-6.65-20.96c-.24-.74.02-2.54.65-2.67.96-.19,2.37.39,2.64,1.29l5.46,17.72,5.44-17.68c.2-.64,1.38-1.35,1.91-1.45.64-.12,1.61,1.48,1.32,2.41Z"/>
          <path class="cls-1" d="M94.5,228.08c0,1.41-.74,2.66-1.86,2.63-.98-.02-1.78-1.22-1.79-2.38l-.06-19.4c-2.38.17-5.26.12-6.73-.37-.5-.17-.78-1.77-.43-2.13s1.47-1.03,2.07-1.04l13.88-.13c.83,0,2.29,1.37,2.27,2.08s-1.33,1.64-2.09,1.7l-5.26.38v18.67Z"/>
          <path class="cls-1" d="M323.41,228.08c0,.92-.37,2.51-.93,2.5s-1.84-.37-2.49-.69l-.04-20.44-5.14-.45c-.65-.06-1.87-.66-2.17-1.22-.35-.65.81-2.47,1.66-2.51,3.21-.15,16.93-1.41,16.48,2.05-.11.82-1.36,1.6-2.31,1.7l-5.08.49v18.58Z"/>
          <path class="cls-1" d="M78.16,227.23c.6,0,1.74.86,1.8,1.4.07.74-.85,2.04-1.62,2.02l-13.02-.2-.17-22.99c0-.66,1.05-2.01,1.68-2.09.78-.1,1.88,1.16,1.87,2.08v19.72s9.46.05,9.46.05Z"/>
        </g>
      </g>
    </g>
  </g>
</svg>