<?xml version="1.0" encoding="UTF-8"?>
<svg id="Layer_2" data-name="Layer 2" xmlns="http://www.w3.org/2000/svg" viewBox="0 0 433.81 160.81">
  <defs>
    <style>
      .cls-1 {
        fill: #fff;
      }
    </style>
  </defs>
  <g id="fekete_zaj" data-name="fekete zaj">
    <g>
      <path class="cls-1" d="M138.39,141.64l-1.1,6.07-.68,3.51-.63,3.66-.73,4.68c-.07.43-.76,1.31-1.14,1.25l-2.55-.45-6.24-1.12-6.9-1.24-12.02-2.22-7.86-1.4-6.58-1.17-6.19-1.12-6.19-1.12-6.22-1.12-5.58-1-3.81-.74-5.58-1-3.95-.71-5.88-1.06-3.89-.71-6.16-1.14-12.41-2.27-3.93-.72-4.61-.8-2.65-.43c-2.15-.35-1.05-4.2-.87-5.16l.81-4.28.73-3.62.35-1.59c.23-1.04-1.9-1.03-2.61-1.03l-8.22.08-3.87.04c-.43,0-1.24-.85-1.23-1.23l.06-3.63V4.85S0,1.23,0,1.23C0,.83.83.03,1.22.04l3.61.06h114s3.99-.07,3.99-.07c.42,0,1.18.82,1.17,1.21l-.05,3.53-.03,24.31v3.48c0,.55.94,1.52,1.45,1.6l2.03.3,3.25.56,3.25.59,4.26.78,4.27.8,4.53.82,2.68.45,4.3.72c1.22.21,3.17.6,2.8,2.45l-.65,3.3-1.08,5.91-1.13,6.16-.78,4.3-2.14,11.74-1.19,6.52-1.14,6.18-.71,3.88-.89,4.91-.72,3.92-.78,4.25-.61,3.24-.49,2.57-.83,4.58-.72,3.94-.69,3.9-.89,4.89-1.26,6.86-.96,5.18-.7,3.76ZM34.45,23.42l.86-4.62c.06-.33,1.03-.97,1.4-.91l5.26.88,5.24.97,3.91.72,5.86,1.07,6.19,1.14,3.91.72,3.9.72,3.24.59,2.96.54,3.89.71,3.99.7,3.93.68,4.82.92,3.61.68,3.9.71,5.22.96,3.96.75,6.5,1.23c.32.06,1.16-.55,1.16-.86l-.02-3.78V10.52s.04-3.49.04-3.49c0-.38-.77-1.18-1.14-1.18l-3.6.04H11.38s-3.91,0-3.91,0c-1.65,0-1.58,2.46-1.57,3.41l.03,7.9v93.94s0,4.33,0,4.33c0,.43.26,1.51.51,1.81s1.31.53,1.71.55l5.22.25c1.2.06,3.63.06,3.94-1.61l1.2-6.51.71-3.86.67-3.61.66-3.6.72-3.9.72-3.91,1.08-5.9.71-3.84.67-3.64.69-3.93.71-3.87.76-3.92,1.13-6.2,1.13-6.2,1.07-5.88.73-3.84,1.09-5.88,1.03-5.54.72-3.9.94-5.12ZM118.19,74.66c0-23.85-19.33-43.18-43.18-43.18s-43.18,19.33-43.18,43.18,19.33,43.18,43.18,43.18,43.18-19.33,43.18-43.18ZM129.18,154.21c.31.04,1.21-.62,1.27-.93l.3-1.58.86-4.62,1.14-6.15,1.08-5.88.72-3.96,1-5.53.71-3.89,1.02-5.55.72-3.92,1.06-5.89,1.07-5.9,1.1-5.84.68-3.52,1.08-5.89,1.07-5.82.78-4.28.69-3.93.88-4.91.75-3.89,1.08-5.85.75-4.28.82-4.26c.05-.24,1.02-3.5-.81-3.82l-2.23-.4-5.9-1.05-3.93-.74-3.87-.72-4.62-.85-3.36-.55c-.39-.06-1.22.81-1.21,1.23l.04,3.92v73.94s.08,3.6.08,3.6c0,.42-.75,1.22-1.14,1.21l-3.63-.05H26.41s-3.57-.05-3.57-.05c-.48,0-1.17.86-1.26,1.31l-.91,4.55c-.23,1.14-1.16,5.03.92,5.35l2.67.41,5.31.9,4.22.81,4.9.89,3.6.62,4,.69,5.45,1.07,3.85.75,5.62.97,6.2,1.11,3.97.71,5.85,1.08,6.15,1.16,6.23,1.12,3.91.68,5.59,1,6.83,1.24,6.52,1.19,6.16,1.14,8.56,1.59,2,.27Z"/>
      <g>
        <path class="cls-1" d="M271.68,113.46c-.24-.6-4.4-.34-6.68-.5-2.11-.15-9.23-1.01-9.19,1.64l.06,3.58.06,3.83c.03,2.11-3.49,1.69-4.6,1.6-.37-.03-1.23-.85-1.24-1.23l-.04-1.82v-10.17c0-1.12.2-2.55.57-3.54l1.5-4,2.45-6.77,1.54-4.31,2.45-6.76,1.8-5.14c.19-.53,1.13-1.5,1.69-1.53,2.16-.12,4.89-.51,5.69,1.71l2.96,8.24,2.05,5.65,1.55,4.29,2.8,7.61c.55,1.51.79,3.28.79,4.93v8.59s.05,3.06.05,3.06c.04,2.05-5.93,1.78-5.92-.07v-2.98s.1-4.02.1-4.02c0-.42-.24-1.43-.42-1.9ZM268.23,106.68l1.68.02c1.02.01.33-2.15.15-2.63l-3.05-8.27-1.72-4.94c-.12-.34-.39-.97-.57-1.39-.1-.23-1.05-.21-1.19,0-.26.39-.69,1.14-.83,1.55l-1.69,4.85-1.49,4.29-1.4,3.71-.6,1.69c-.1.29.49,1.14.78,1.14l1.87-.02h8.07Z"/>
        <path class="cls-1" d="M237.82,123.63h-3.95s-17.78.01-17.78.01l-3.56.06c-.46,0-1.46-.85-1.46-1.38v-4.2c0-.68.66-2.08,1.05-2.68l2.65-4,3.49-5.38,4.06-6.3,3.68-5.58,2.43-3.75,2.02-3.09c-.09.14,2.11-2.81.61-2.99-.48-.06-1.62-.16-2.13-.16l-7.8.04-7.44.04h-1.49c-.37,0-1.17-.88-1.17-1.28v-3.37c-.01-.5,1.01-1.33,1.53-1.32l3.54.07h17.76s3.89-.04,3.89-.04c2.45-.03,2.05,5.73.42,8.23l-2.91,4.46-6.65,10.33-3.02,4.7-1.96,3.01-3.69,5.64c-.3.45-.82,1.42-1.06,1.89-.44.85,2.7.8,2.93.8l7.03-.03,7.41-.03c.47,0,1.26.04,1.81.08,1.88.12,2.02,6.24-.24,6.24Z"/>
        <path class="cls-1" d="M289.87,106.55h3.8c.46.02,1.26,1.03,1.25,1.51l-.11,3.23c-.02.74.11,2.01.38,2.65,1.74,4.03,6.81,3.63,10.69,3.31,2.94-.24,5.12-2.71,5.12-5.6v-3.51s0-18.92,0-18.92v-3.76c0-.38-.75-1.25-1.12-1.25l-1.87-.03-5.87.05-4.33.04c-.86,0-3.17.17-3.34-1.34-.08-.76-.07-2.52.06-3.28.24-1.44,2.4-1.3,3.26-1.3l7.82.03,6.99-.03,3.05-.03c.42,0,1.22.84,1.21,1.23l-.05,3.51v25.83s0,3.95,0,3.95c0,2.23-.93,3.95-2.16,5.9-1.74,2.76-5.55,4.48-8.72,4.79-6.23.6-11.29.06-15.27-5.13-.61-.8-1.21-2.16-1.44-3.18-.34-1.5-1.83-8.68.65-8.67Z"/>
      </g>
      <g>
        <path class="cls-1" d="M429.76,24.93h-2.19s-5.86-.03-5.86-.03l-7.4-.04c-.58,0-1.54.05-2.15.09-1.52.09-1.26,2.52-1.26,3.25v7.5s0,2.25,0,2.25c0,1.59,2.74,1.5,3.81,1.5l10.85-.02,5.1-.03,1.92-.02c.38,0,1.25.86,1.24,1.25l-.11,3.42c-.02.55-1.11,1.62-1.63,1.62h-3.79s-18.16.03-18.16.03l-3.54.05c-.51,0-1.48-.79-1.48-1.32v-3.83s0-35.83,0-35.83l-.06-3.57c0-.38.79-1.19,1.16-1.18l3.51.06h18.94s3.49-.06,3.49-.06c.48,0,1.54.86,1.55,1.35l.06,3.69c0,.39-.87,1.31-1.23,1.31h-1.88s-6.25-.02-6.25-.02l-10.1-.03c-.55,0-1.61.06-2.13.1-1.52.11-1.29,2.45-1.29,3.25v5.98c0,.47-.14,2.89.88,2.94.47.02,1.26.05,1.74.05l7.04-.04,7.03-.04,1.85.03c.39,0,1.2.93,1.2,1.3l.02,3.65c0,.3-.7,1.14-.89,1.37Z"/>
        <path class="cls-1" d="M350.23,24.93l-7.6-.04-7.05-.04c-.46,0-1,.08-1.65.15-.08.63-.17,1.19-.17,1.64l.02,9.44.04,2.19c.02,1.13,1.78,1.19,2.56,1.18l10.1-.04,6.26-.03,1.8.02c1.57.02,2.17,5.99-.36,5.96l-3.84-.03h-17.37s-3.87,0-3.87,0c-.58,0-1.58-1.04-1.58-1.66v-3.84s0-35.07,0-35.07l-.06-3.54c0-.38.81-1.19,1.24-1.19l3.88.04h17.77s3.79-.01,3.79-.01c2.12,0,1.69,3.81,1.61,5-.03.45-1.11,1.31-1.59,1.31h-3.8s-12.03-.03-12.03-.03h-3.38c-.39,0-1.21.73-1.21,1.1v1.47s.02,7.91.02,7.91c0,.47.08,1.01.15,1.66.64.08,1.2.17,1.65.17l7.83-.05,7.02-.04h1.55c.37-.01,1.26.83,1.24,1.26l-.12,3.76c-.03,1.12-1.69,1.35-2.87,1.35Z"/>
        <path class="cls-1" d="M275.5,23.5c-.16,1.63-2.56,1.43-3.43,1.43l-6.2-.03-7.02-.04c-.72,0-2.92-.07-2.95,1.18l-.05,2.17v7.49s0,2.26,0,2.26c0,1.6,2.82,1.49,3.81,1.49h12.06c2.2,0,5.99-.79,6.06.55l.22,4.12c.02.42-.9,1.28-1.3,1.27l-3.45-.05h-18.17s-3.85.05-3.85.05c-.44,0-1.21-.84-1.2-1.29l.05-3.48V4.78s-.06-3.57-.06-3.57c0-.39.76-1.19,1.17-1.18l3.5.06h18.17s3.9-.07,3.9-.07c.37,0,1.21.82,1.21,1.2l-.02,3.9c0,1.48-1.78,1.27-2.3,1.27l-6.67-.03-9.71-.04c-.83,0-3.27-.05-3.34,1.22-.03.52-.07,1.59-.07,2.14v5.97s0,1.86,0,1.86c0,1.19,1.91,1.14,2.63,1.14l7.41-.04,6.26-.04c.54,0,1.59.05,2.15.1,1.6.12,1.3,3.83,1.21,4.83Z"/>
        <path class="cls-1" d="M310.45,35.07l3.25,5.24,1.52,2.44c.19.31.56,1.11.75,1.53.15.35-.62,1.29-1.05,1.27l-4.3-.23c-.59-.03-1.69-.98-2.03-1.53l-2.5-4.04-4.98-8.13-2.45-4.17c-.49-.84-2.04-1.59-2.85-1.46-.25.04-.95.59-.95.8l-.05,1.8.05,7.04.05,7.02v1.53c.01.39-.82,1.26-1.22,1.26l-3.83-.04c-.37,0-1.23-.91-1.24-1.28l-.02-1.85v-7.81s0-29.29,0-29.29l-.04-3.86c0-.39.87-1.28,1.26-1.28h3.83c.23-.01.95.42,1.21.55l.04,1.8-.04,7.42-.04,7.42.04,1.8c0,.2.69.76.93.79.83.1,2.31-.7,2.78-1.54,1.03-1.86,1.97-3.4,3.06-5.12l2.25-3.53,4.94-8.22c.31-.51,1.57-1.34,2.17-1.33l4.9.04c.13,0,.58.58.62.68l-3.49,5.58-2.94,4.8-4.09,6.67-2.51,3.86c-.45.7-.42,1.72.03,2.41l2.68,4.08,4.28,6.91Z"/>
        <path class="cls-1" d="M232.91,20.58c1.41,0,4.08,0,4.09,1.47l.03,3.21c0,.27-.56,1.09-.83,1.09l-2.26.04-4.91.17c-1.42.05-2.76.06-4.23-.04-1.31-.09-7.13-.59-7.62.92-.14.43-.33,1.5-.32,1.93l.08,10.9.03,3.85c0,.43-.83,1.32-1.24,1.32l-3.46-.06c-.38,0-1.19-.95-1.19-1.35v-3.41s.02-35.84.02-35.84l-.08-3.56c-.01-.43.76-1.22,1.16-1.21l3.54.07h18.94s3.46-.06,3.46-.06c.41,0,1.36.84,1.34,1.25l-.18,3.75c-.06,1.31-2.65,1.35-3.42,1.35l-8.17-.02-7.41-.02c-.52,0-1.55.07-2.09.13-1.48.14-1.31,2.75-1.31,3.62v7.12s.06,2.2.06,2.2c0,.44,1.02,1.22,1.48,1.22h3.84s10.65-.03,10.65-.03Z"/>
        <path class="cls-1" d="M383.5,40.04v3.92c0,.39-.83,1.42-1.2,1.42h-3.74c-1.68.02-1.23-3.73-1.23-4.72l.03-28.96v-3.86c0-.52-1.04-1.49-1.58-1.49h-3.84s-3.83.03-3.83.03c-.46,0-1.57-.84-1.59-1.3l-.15-3.8c-.02-.42.92-1.25,1.34-1.25l3.44.05h18.55s3.84-.06,3.84-.06c1.88-.03,1.99,6.35-.39,6.35h-4.25s-4.2,0-4.2,0c-.46,0-1.29.98-1.28,1.43l.05,3.52.02,28.72Z"/>
      </g>
    </g>
  </g>
</svg>