<?xml version="1.0" encoding="UTF-8"?>
<svg id="Layer_2" data-name="Layer 2" xmlns="http://www.w3.org/2000/svg" viewBox="0 0 339.48 339.14">
  <defs>
    <style>
      .cls-1 {
        fill: #fff;
      }
    </style>
  </defs>
  <g id="kerekes_band" data-name="kerekes band">
    <g>
      <path class="cls-1" d="M195.77,339.14h-51c-.27-1.84-1.96-3.32-3.89-3.88l-7-2.05c-1.57-.46-3.01-1.23-4.29-2.21l5.46-.56,4.84-.5-.28-2.9c-.6-6.11-.14-12.12.12-18.21l.33-7.82.28-5.24.88-12.24c1.27-17.59,9.31-22.22,13.97-36.19,1.2-3.59,2.67-6.88,4.56-10.14l5.56-9.57c2.02-3.48,3.26-7.13,4.47-11.33,7.09,8.29,13.31,12.71,22.31,18.22,3.06,1.88,6.08,3.69,8.88,5.81,2.01,1.52,2.61,3.62,2.46,6.03-.4,6.71-1.47,13.11-3.05,19.63l-3.47,14.28c-3.94,16.21-4.3,26.99-3.56,43.53.12,2.64.5,5.22.86,7.76l8.37,1.38,2.03,4.29-8.84,1.9Z"/>
      <g>
        <path class="cls-1" d="M0,192.03v-43c5.03-34.46,18.95-66.36,42.65-92.48C73.32,22.74,113.8,3.25,159.52.4l3.86-.24c3.73-.23,7.49-.2,11.22,0l4.94.27,8.35.67-.44,1.82c-1.03,4.23-.87,8.54-.27,12.93.15,1.12-.4,2.1-.62,3.15-.34,1.69-.23,4.02-.11,5.76l6.16,7.56c.87,1.07,1.32,4.2.45,5.21-1.8,2.07-3.41,3.86-3.59,6.73-.5,8.45,2.95,19.2,5.43,27.62.58,1.97,1.38,4.45,1.22,6.43-2.51,5.6-5.29,10.67-8.45,15.95-3.92.11-7.12,1.33-10.15,4.09l-2.31-2.29-5.32.2-.32-3.44c5.91-4.85,11.91-10.42,14.6-17.54,1.23-3.26.72-6.96-1.96-9.26-5.51-4.7-17.79-2.72-24.49-2.12-5.88-3.69-16.61-.46-22.21,3.01-1.96,1.22-3.37,3.04-4.28,5.13-5.57,2.99-14.31,7.49-17.26,13.19-1.12,2.16-1.33,5,.32,6.88,1.56,1.78,3.88,2.87,6.16,3.61,5.53,1.78,11.02,3.14,16.74,4.32,1.55.32,2.76,1.06,3.02,2.79-4.17.49-7.98,1.75-10.73,4.78-.31.34-.68.87-.74,1.18s.59.88.89,1.04l4.18,2.32-7.39,1.42c-4.3.83-6.42,3.84-8.24,7.29-3.85,1.88-8.01,3.59-11.65,6.07-4.55,3.09-17.96,12.79-20.24,17.02s.22,17.1,1.61,22.09l6.13,22.08c.68,2.46,2.47,4.8,4.9,5.54,3.61,1.09,6.97-1.01,8.66-4.15.31-.58.88-1.31,1.3-1.78l2.04,1.66,2.26-1.56,6.23,8.44c3.99,5.41,7.93,2.15,12.68.05,2.1-3.57,5.66-4.07,3.3-7.04-1.89-2.38.3-5.13-3.06-7.75-2.67-2.08-6.89,2.18-10.18-3.51-.43-.74-1.99-1.96-1.74-2.76.79-1.49,2.13-2.53,2.3-4.11s-.91-3.35-1.92-4.52l-7.91-9.1c3.4-.45,5.7-1.72,7.56-4.26l2.86-3.9c.84-1.15,1.96-2.13,3.48-2.77,4.34,9.52,8.5,18.64,13.59,27.64,2.75,4.86,1.91,6.1.78,11.71l1.68,2.3c-6.75,7.52-11.43,15.9-14.38,25.39l-5.2,16.72c-2.42,7.79-4.39,13.14-10.2,18.9-6.48,6.44-11.83,13.44-16.16,21.51-7.82,14.42-11.88,29.23-16.52,45.09-12.47-7.49-23.45-16.56-33.35-26.68C20.88,262.43,5.28,228.64,0,192.03Z"/>
        <path class="cls-1" d="M339.48,156.58v27.54c-.29,1.6-.51,3.18-.7,4.98-5.68,53.79-37.19,101.92-84.25,129.11-7.03-17.79-10.24-40.03-12.61-58.86l-3.46-27.56c-.9-7.16-15.35-23.29-20.74-28.89-5.98-6.22-12-12.06-18.82-17.3-1.5-1.15-3.19-2.15-2.59-4.37l2.85-.26c.01-1.75-.03-3.7-.45-5.46-4.04-17.03,3.59-22.41,4.64-37.78.24-3.48.43-6.85.11-10.29l-.9-9.78c6.72-8.74,10.76-17.7,17.55-26.51,1.33-1.72,2.12-3.94,2.46-6.2.79-5.25,1.09-10.4,1.25-15.71l.34-11.43c.13-4.4.61-9.56-4.59-12.55-3.5-2.01-7.12-3.62-10.9-5.33l-.73-3.81-3.03-.41c-.1-1.21-.42-3.19.01-4.27,1.75-4.43,1.91-8.93-.18-13.25-.77-1.6-2.31-1.89-3.76-2.62l-3.81-1.93c-.65-.33-1.64-1.67-2.23-2.07l-2.54-.3c-.9-3.23-.99-6.42-.62-9.7,77.57,10.16,138.68,72.54,147,150.43.15,1.43.28,3.12.69,4.59Z"/>
      </g>
    </g>
  </g>
</svg>