<?xml version="1.0" encoding="UTF-8"?>
<svg id="Layer_2" data-name="Layer 2" xmlns="http://www.w3.org/2000/svg" viewBox="0 0 460.38 156.59">
  <defs>
    <style>
      .cls-1 {
        fill: #fff;
      }
    </style>
  </defs>
  <g id="nemzeti">
    <g>
      <path class="cls-1" d="M223.23,155.25c-1.6,1.66-3.71,1.54-5.52.51-.66-.38-1.25-1.92-.98-2.75.22-.67,1.08-1.37,1.96-2.12-1.29-.8-2.04-2.44-1.2-3.9.62-1.09,2.38-1.82,3.85-1.42,1,.27,2.03,1.11,2.12,1.95.09.89-.65,2-1.32,2.72.65.62,1.55,1.49,1.85,2.11s-.18,2.3-.76,2.91ZM220.75,149.86c1.27.14,1.85-1.43,1.62-2.23-.31-1.08-1.21-1.67-2.15-1.63-1.15.05-2.16.72-1.93,2.18.1.65,1.41,1.56,2.46,1.67ZM222.66,152.82c-.6-.69-2.2-1.48-2.96-1.41-1.52.14-2.03,1.71-1.81,2.77.26,1.27,1.49,1.92,3.08,1.66.54-.09,1.47-.67,1.75-1.08.24-.34.26-1.58-.06-1.94Z"/>
      <path class="cls-1" d="M236.41,155.07c.33,1.39,3.2,1.19,3.71-.38.37-1.12.46-3.24-1.3-3.61l-1.89-.4c1.1-.33,2.28-.52,2.76-.99.53-.53.41-2.37-.06-2.99-.53-.7-1.94-.69-2.99-.29l.26,2.03c-.05.23-1.09.68-1.22.38s-.31-1.25-.21-1.62c.41-1.45,2.54-2.12,4.15-1.55,1,.35,1.8,1.26,1.87,2.33.06.81-.75,1.9-1.46,2.57,1.17.84,2.15,2.12,1.85,3.43-.33,1.45-1.49,2.32-3.13,2.48-1.32.13-3.24-.49-3.62-1.61-.09-.27-.13-1.22-.14-1.5,0-.35.73-.56,1.36-.56.48,0-.07,1.79.04,2.27Z"/>
      <path class="cls-1" d="M255.57,155.13c.93-3.11,2.08-5.36,3.44-8.21h-4.33s-1.26,2.49-1.26,2.49l.33-3.83,6.56.15c-1.78,3.13-2.82,6.39-2.92,9.87,0,.29-.61.82-.85.97-.3.19-1.07-1.09-.97-1.44Z"/>
      <path class="cls-1" d="M199.62,156.17l1.97-1.01.03-7.49-2.42-.73,3.66-1.2.11,9.67,2.18.73c-2.13.13-3.67.14-5.52.04Z"/>
      <g>
        <path class="cls-1" d="M428.05,50.67c-2.7,2.55-5.1,4.8-8.61,7.21l2.72-7.38,5.89.17Z"/>
        <path class="cls-1" d="M345.47,50.6c-3.29,2.79-5.28,5.06-8.9,7.33l2.79-7.34c2.05-.11,4.19-.1,6.11,0Z"/>
        <g>
          <path class="cls-1" d="M242.72,126.56c-18.35,5.04-9.53,3.07-22.34.71-12.03-2.21-20.71-12.3-20.71-24.65l-.02-50.7,2.41-.24c1.49-3.95-2.69-3.25-2.64-6.81.05-3.79,3.44-1.97,2.92-6.79l1.77-.61,2.81-13.73,13.49-9.52,7.79-.08c-.83-4.86.47-2.05-2.64-6.69-2.33.24-3.88,4.48-5.54,2.43-1.78-2.19,2.95-2.37,4.43-4.04-1.11-2.98-3.32-3.19-3.11-4.78.06-.46.98-1.06,1.45-1.07,1.91-.02.66,2.08,3.24,4.68,3.41-1.11,3.14-4.07,5.42-2.64.5.31.47,1.8-.11,2.03-1.57.63-2.83,1.25-4.32,2.24,3.53,7.22,5.85,2.02,4.85,7.85l8.18.07,13.54,9.63,2.77,13.63,1.75.48c-.21,5.15,2.86,3.29,2.95,6.89.09,3.63-3.89,2.53-2.68,6.84l2.43.18.07,49.5c.02,11.66-6.64,22.02-18.16,25.18ZM235.86,37.43l-.05-8.19c-.02-2.86-2.69-4.92-5.18-5.02s-5.48,1.7-5.52,4.58l-.12,8.68,5.11.33c4.19-.64,2.96.98,5.75-.38ZM208.54,31.34l-.27,6.22h5.48s.05-4.21.05-4.21c.02-1.97-1.14-4.03-3.48-3.57,2.2.69,3.19,2.15,3.09,4.44l-.12,2.93h-4.46s-.29-5.81-.29-5.81ZM249.45,37.84c1.01.01,2.24-.02,3.08-.34l-.03-4.88c0-1.54-1.36-2.86-2.7-2.99-1.11-.11-3.02,1.14-3.02,2.53v5.66s2.67.03,2.67.03ZM257.66,51.78c-.85-1-1.07-1.25-1.27-1.49-.47-.56,1.76.17,1.31-1.08h-55.03c.52.94.73.81,1.43.99l-1.51,1.58h55.06ZM248.19,93.46l.14-8.53,8.02.07v-5.6s-8.07.09-8.07.09l.03-8.43,5.37.21-.03-5.71-5.38.09.15-9.28-5.73-.1.1,9.36-5.42-.06.02,5.6h5.39s-.05,8.31-.05,8.31l-8.13-.08.05,5.6,8.04-.05.21,8.61c.97-1.44,1.31-2.26,2.79-2.19.89.04,1.52.87,2.51,2.1ZM229.55,61.25h-29.14v9.87h29.14v-9.87ZM229.52,81.09h-29.12v9.96h29.12v-9.96ZM239.72,99.66l11.58-.02.94-5.43c-.85.23-2.1.68-2.41,1.17-.25.41.51,1.59.72,2.19-1.31.58-3.24.56-3.95-.65l1.79-.83c1.66-.77-1.37-1.33-1.98-3.22-.15-.46-1.59-.7-1.76-.24l-.51,1.42-1.67.9c-.3.16.1,1.22.41,1.35l1.48.61c-.64,1.27-2.64,1.26-3.94.67.21-.53.87-1.64.77-2.06-.15-.64-1.63-1.2-2.55-1.52l1.08,5.66ZM229.51,110.94l-.04-9.95h-29.06c-.08,3.44.2,6.63,1.44,9.97h27.66ZM241.07,126.36c9.79-2.41,17.58-10.21,18.59-20.35-.6-1.93-4.26-1.93-5.53-.93-.84-1.28-1.78-2.69-2.73-3.47l-11.85-.06-2.85,3.6c-1.27-1.29-5.59-.9-5.6,1.24l-.12,22.45,10.1-2.48ZM229.5,128.88l-.04-8.02-20.45.07c3.15,3.2,6.97,4.53,11.01,5.55l9.48,2.4Z"/>
          <path class="cls-1" d="M235.48,37.13l-10.04.02v-8.26c.76-2.45,2.44-4.03,4.91-4.08,2.07-.05,4.66,1.61,4.93,4.19s.18,5,.21,8.14Z"/>
          <path class="cls-1" d="M251.74,37.14h-4.4c.87-3.23-1.06-5.81,1.88-6.95.81-.31,2.51.79,2.52,1.81v5.14Z"/>
        </g>
        <g>
          <path class="cls-1" d="M345.21,98.94c.18.02.53.92.37,1s-.65.29-.96.29l-11.04.03c-.34,0-1.22-.53-1.06-.77s.64-.56.99-.64l1.77-.42v-35.8s-2.62-.45-2.62-.45l.02-1.02c0-.19.59-.27.84-.27l10.8-.02c.37,0,1.15.41,1.15.7,0,.36-.64.75-1.01.82l-1.79.33.03,36.02,2.52.22Z"/>
          <path class="cls-1" d="M457.26,78.59c-.02-.43,1.7-.47,1.72-.06l.03,21.7h-34.21c.13-2.02,1.36-1.32,2.69-1.43l-2.82-11.24-7.8-.07-2.63,10.86,3.41.67-.29,1.19-8.42.06c-.31,0-1.04-.45-1.03-.76.03-1.46,3.15.3,3.94-2.89l7.35-29.49-1.54-6.85h7.31s10.01,38.44,10.01,38.44l3.18.39,14.24-36.53c-2.33-.44-4.76-.4-6.95.59-4.49,2.03-4.21,9.47-4.13,13.39-.34.06-1.47.02-1.62-.05l.02-15.64,20.65.03-13.92,37.71c10.13,2.27,11.02-12.77,10.79-20.02ZM424.17,85.6l-3.32-12.9c-1.53,4.58-2.4,8.43-3.43,12.99l6.75-.08Z"/>
          <path class="cls-1" d="M407.47,100.2h-12.3c-.02-1.48.74-1.47,2.07-1.36l.06-19.75-6.6-.05v19.58s1.47.27,1.47.27c.32.06.43.78.37,1.36l-11.9-.02c0-2.04,1.4-1.16,2.69-1.48l.03-35.98c-.96-1.11-1,.13-2.6-.81-.24-.14.39-1.1.75-1.09l10.97.07c.12.2.32,1.21.08,1.25l-1.83.3-.04,14.67h6.65s-.09-14.71-.09-14.71l-1.81-.22c-.31-.04.04-1.34.44-1.34l11.39.04c.25,1.75-.91,1.44-2.48,1.44v36.38c1.11.54,2.22-.98,2.7,1.46Z"/>
          <path class="cls-1" d="M370.85,99.97l-15.13-26.3-.1,23.6c0,.88.84,1.52,1.56,1.62l1.26.18c.25.04-.26,1.16-.55,1.17l-6.82.04c-.29,0-.94-.52-.89-.76s.58-.62.85-.62c.94,0,1.92-.61,1.92-1.65v-33.42c.01-.82-.69-1.5-1.31-1.55l-1.23-.1c-.24-.02.02-1.24.26-1.25l7.95-.05,12.07,20.87c.33-6.29.23-11.99.24-17.91,0-.61-.95-1.46-1.35-1.51-.66-.02-1.17.05-1.17-.18l-.03-1.22,6.81-.06c.32,0,.95.43,1.05.69.43,1.13-2.62.09-2.62,2.39v35.79c-.35.63-2.32.76-2.77.24Z"/>
          <path class="cls-1" d="M293.96,100.77c-3.6.96-7.47-.28-10.49-1.54-.78.3-2.15,1.29-2.66.79l-.04-18.45,1.55-.13c.29,5.62-.43,10.84,3.06,15.5,1.61,2.15,5.09,3.4,7.27,1.62,2.02-1.66,1.88-4.91.76-7.13-3.81-7.59-9.9-11.03-12.78-18.01-1.73-4.18-.77-9.22,2.99-11.79,4.18-2.85,9.3-1.73,13.44.62.37-.89,1.27-1.71,2.17-1.22l.06,14.97c0,.33-.41.99-.69,1.11-2.37,1,1.12-6.83-4.51-13.46-1.66-1.96-5.3-3.19-6.95-.67-1.4,2.14-.17,5.54,1.11,7.67,4.09,6.83,9.91,10.4,12.55,16.99,2.28,5.7-.8,11.53-6.85,13.14Z"/>
          <path class="cls-1" d="M326.34,100.23h-21.27s14.65-37.61,14.65-37.61c-2.24-.46-4.52-.45-6.64.41-4.89,1.97-4.45,9.44-4.43,13.53-.4.07-1.35,0-1.64-.12l.03-15.58,20.64.05-13.87,37.67c3.71,1.08,6.87-.95,8.46-4.45,3.43-7.54,1.6-15.59,2.7-15.98.5-.18,1.54.42,1.38,1.03v21.05Z"/>
        </g>
        <g>
          <path class="cls-1" d="M76.07,98.78l-.14-27.63-8.49,28.7-8.68-28.67-.14,26.37c0,.58.98,1.25,1.49,1.33l1.23.2c.23.04-.22,1.14-.45,1.14l-6.49.02c-.31,0-.87-.08-1.02-.13-.23-.07-.19-.77-.14-1.01s.56-.2,1.23-.25c.71-.06,1.48-.8,1.48-1.7v-34.56s-2.54-.41-2.54-.41l-.19-1.28,10.72-.02,5.61,21.13,6.15-21.12h10.84c.03,1.82-.97,1.53-2.74,1.43l-.02,36.35,2.58.28c.24.03-.16,1.25-.52,1.25l-11.32.02c-.23,0-.98-.18-1-.32l-.12-.98,2.66-.17Z"/>
          <path class="cls-1" d="M20.67,100.06l-15-26.05-.2,23.08c0,.42.04,1.38.28,1.44l1.51.35c.32.07.87.41,1.02.66s-.71.71-1.03.72l-6.31.02c-.29,0-1.06-.51-.93-.75s.6-.66.9-.7l1.2-.17c.33-.05.65-.96.65-1.52v-34.09c-.01-1.15-2.26-.22-2.71-1.13-.14-.29.55-1.05.91-1.05l7.49.06,11.99,20.72c.43-6.19.24-11.7.28-17.88.01-1.83-2.57-1.28-2.54-1.55l.13-1.26,6.86-.06c.25,0,.89.43.91.66.14,1.52-2.64.01-2.64,2.31v35.95c-.54.5-1.96.52-2.77.25Z"/>
          <path class="cls-1" d="M43.57,91.74c-.11-3.38.14-11.26-5.1-11.67v18.68c4.57-.03,8-2.96,8.95-7.37.65-3.01.59-6.33.55-9.56,0-.49,1.65-.59,1.65,0v18.41s-21.34-.02-21.34-.02c.12-1.86,1.19-1.36,2.67-1.36l.04-36.19-2.47-.52c-.29-.06.21-1.28.7-1.28l20.11.07.07,15.1c0,.42-.91.95-1.13.81-1.24-.76.62-5.75-1.41-10.45-1.38-3.19-5.06-4.34-8.39-3.84v15.76c7.01-.05,3.63-8.91,6.02-9.99l.17,23.1-1.09.31Z"/>
          <path class="cls-1" d="M129.62,92.15c-2.15-1.85.68-11.26-5.95-12.05l.02,18.62c4.38.1,7.77-2.72,8.85-6.9.76-2.97.68-6.04.71-9.21v-.99c.01-.28.89-.22,1.56-.23v18.86s-21.37-.02-21.37-.02c.14-1.91,1.16-1.3,2.73-1.44l.02-35.41c0-.72-1.37-1.16-1.6-1.12-.5.01-.83.09-.83-.06l.05-1.29,20.78.03.03,15.33c0,.47-1.39.59-1.54.29.02-2.32,0-4.77-.17-7.28-.32-4.69-4.75-7.7-9.24-6.59l.03,15.71c5.13-.12,4.86-5.17,5.12-8.7l.06-.78c.01-.19.51-.23.67-.13.54.35.46,20.99.07,23.39Z"/>
          <path class="cls-1" d="M109.59,100.24l-21.28.02,14.67-37.65c-1.82-.27-3.49-.31-5.14-.03-6.27,1.05-5.99,9.01-6,13.73,0,.36-1.1.46-1.57.34v-15.74s20.66.03,20.66.03l-13.88,37.65c12.1,2.76,10.53-18.83,10.88-20.16.08-.32.89-.12,1.63-.09l.02,21.91Z"/>
          <path class="cls-1" d="M157.19,100.2l-11.43.06c-.23,0-.99-.03-.99-.19l-.02-1.07,2.44-.31v-36.25c-6.95.75-7.46,11.23-7.17,16.18l-1.68.14-.02-17.87h25.4s0,17.7,0,17.7l-1.44.23c-.67.11,1.49-15.11-7.58-16.44v35.25c-.01.23.05,1,.22,1.03l1.21.18.99.15c.16.02.08.25.06,1.21Z"/>
          <path class="cls-1" d="M178.33,100.26l-10.88-.03c-.24,0-.96-.01-.97-.16l-.02-1.08,2.66-.28.02-36-2.18-.41-.59-.39c-.21-.14.47-1.02.73-1.02l11.71.04c.2.13.36,1.49.24,1.36l-2.53.36v35.74c.65,1.07,2.05-.31,2.85,1.13.15.26-.69.74-1.05.74Z"/>
        </g>
      </g>
    </g>
  </g>
</svg>