<?xml version="1.0" encoding="UTF-8"?>
<svg id="Layer_2" data-name="Layer 2" xmlns="http://www.w3.org/2000/svg" viewBox="0 0 358.85 344.2">
  <defs>
    <style>
      .cls-1 {
        fill: #fff;
      }
    </style>
  </defs>
  <g id="ozora">
    <g>
      <path class="cls-1" d="M120.05,265.88l-8.55,14.7c21.72,13.61,46,19.6,71.44,19.07l-.1,25.69-8.61-.05-.09-17.06c-38.52-1.14-73.26-18.05-98.56-46.71l-6.35,5.31c25.13,28.53,59.51,46.3,97.37,49.29l-.14,8.81c-56.95-4.37-106.36-39.96-129.24-92.81,3-.75,6-1.17,8.91-1.35,5.11,10.73,10.29,19.61,17.25,29.03,2.71-1.91,4.61-3.51,6.37-5.2-6.06-8.56-10.62-16.16-15.23-25.8l7.67-3.47c10.16,20.24,23.28,37.04,41.63,50.05l4.63-6.47-12.25-10.29c-12.4-12.42-22.43-26.41-29.06-43.91l27.87-.32c15.44,29.49,44.49,49.16,78.53,51.03.74-2.62.75-5.33.39-8.27-22.06-1.29-41.73-10.63-57.38-26.31,1.43-3.01,3.77-5,6.93-5.91,13.45,14.02,31.06,22.5,50.48,23.27l.06-8.22c-36.09-2.44-63.57-32.23-63.73-67.67.09-35.92,27.25-65.77,63.79-68.39l-.1-8.38c-24.06,1.33-45.41,13.54-59.2,33.78l-37.18.04-10.56-8.08c2.69-.25,5.12-1.7,5.36-4.29l11.02-17.52-6.45-5.15c-5.74,7.75-10.01,14.85-14.61,23.59-2.5-.1-5.24-1.13-7.73-2.79,6.7-15.1,15.94-27.64,27.36-39.49,8.54-8.59,17.8-15.13,28.35-21.84-.53-2.58-1.69-4.91-3.48-7.58-11.92,6.54-21.73,14.33-31.17,23.99-14.46,14.3-25.43,31.39-32.9,50.94,12.02,2.34,22.2,7.19,30.28,16.41l36.48.08-3.19,8.83-37.13-.05c-8.47-11.39-21.22-17.01-34.48-17.02-13.6.13-25.1,6.63-34.55,18.12.18-5,1.13-9.16,2.01-14.33,3.65-3.08,7.44-5.59,12.12-7.85,5.11-16.47,11.94-32.17,21.62-46.58,5.55-8.1,10.86-15.41,17.61-22.83,2.89.99,5.03,2.64,6.35,5.5-15.71,17.89-28.16,37.51-35.12,60.26l9.16-1.07c6.36-18.66,16.57-34.67,29.21-49.88,13.49-14.83,28.76-27.04,47.18-35.96l8.13,14.81c20.57-9.75,41.86-14.94,64.81-13.53l-.52,16.67c24.23.85,47.51,8.97,67.38,23.64,2.07-1.89,3.46-3.67,5.14-6.36-18.39-14.02-39.77-22.4-63.21-25.08-1.2-2.54-.82-5.6.84-8.5,12.76,1.24,24.01,4.29,36.12,8.72,1.46-2.18,2.57-4.57,3.31-7.53-35.76-14.33-74.92-13.94-110.62,1.08-2.12-2.09-3.11-4.77-3.71-7.7,75.04-31.96,161.74-.21,198.09,72.69,3.08.12,5.93.09,8.93-.2-7.67-16.36-16.93-29.56-28.7-42.53l6.57-5.68c15.41,16.63,27.4,35.09,35.36,56.84-6.47.77-13,.67-19.66.57-2.89.17-5.58.09-8.36-.79-14.41-30.92-38.15-55.4-68.88-70.38-2.26,1.93-3.31,4.48-3.43,7.56,12.92,6.29,23.83,14.08,34.39,23.74,11.8,11.07,21.07,23.85,28.81,38.82-3.12,1.28-6.41,1.28-9.85.42-7.27-13.91-16.8-25.6-28.66-36.07-2.46,1.73-4.09,3.87-5.04,6.5,10.27,9.45,18.53,18.98,25.34,31.55l-11.16-1.62c-21.53-33.63-59.43-53.2-99.36-50.92-38.53,1.93-74.1,24.35-92.02,59.28,3.87.33,6.63.27,9.77-.24,18.68-31.66,52.21-50.89,88.44-50.87,36.62.18,70.21,19.33,88.85,51.4,21.63-.27,39.99,13.78,44.22,35.52l4.18-5.66c1.94,3.03,3.52,5.65,4.99,8.59l-17.23,29.82c-3.35.47-6.3.43-10.08-.16l7.65-13.89c6.42-16.68-1.73-34.91-18.01-42.27-6.57-3.13-13.56-3.49-21.01-3.26-15.21-29.32-44.5-49-76.54-51.09-33.91-2.61-66.27,13.1-85.3,41.72,3.26.73,6.38.73,9.94.61,30.36-40.47,88.43-45.95,126.37-11.92,8.68,8.17,15.42,18.27,20.84,29.13l17.52.49c11,3.18,19.15,11.56,20.21,22.23,1.39,11.72-4.94,21.59-16.15,27.1l21.29,17.89-13.41.34-29.66-25,13.19-.53c9.73-.99,17.01-9.14,16.17-18.68-1.47-7.79-6.7-13.01-14.3-14.8l-11.47.04c.06,2.48.72,4.23,2.14,5.28,5.65-.9,9.93.1,13.98,3.18,3.21,3.73,4.4,8.51,2.25,12.88-1.98,3.86-5.98,6.95-10.98,6.61h-12.95s-.09-8.6-.09-8.6l13.21-.13,3.27-2.52-2.82-2.74-14.37-.36c-5.7-36.22-35.26-63-71.2-65.36-.72,3.08-.5,5.47.04,8.42,36.11,2.68,63.03,32.01,63.54,67.62.18,35.6-27.38,66.01-63.53,68.44-.6,2.86-.62,5.65.34,8.28,19.64-1.23,36.61-9.68,50.2-23.35,2.9,1.05,5.16,3,6.75,5.71-15.51,16.05-35.26,25.22-57.41,26.47-.26,2.79-.29,5.21-.02,8.3,33.86-1.78,63.4-21.35,78.82-51l46.74.07-4.7,8.6-17.65.23c-29.48,61.25-103.17,85.85-163.46,54.31l4.53-7.35c35.66,18.16,78.38,16.31,112.14-6.13-.87-2.73-2.52-4.91-4.77-6.71-49.33,32.42-115.58,16.57-144.98-34.35-3.12.01-5.64.15-9.2.54,9.33,17.5,22.02,31.33,39.36,42.26ZM173.7,52.88c.61-3.49.66-6.17-.04-8.56-35.59,1.42-67.41,16.73-90.72,42.8,1.66,2.39,3.82,4.45,6.62,5.35,21.97-24.11,51.65-38.45,84.14-39.59ZM183.62,121.08c28.29,2.9,47.78,27.26,46.09,54.43-1.88,26.99-24.75,48.12-51.87,47.64-27.36-.41-49.38-21.92-50.41-49.27-1.15-26.84,19.15-50.16,46.51-52.87.33-2.93.3-5.57-.28-8.39-32.75,2.85-56.51,30.74-54.5,62.82,1.34,31.21,27.97,56.04,59.37,56.08,31.72-.07,57.93-25.09,59.54-56.83,1.38-31.4-22.06-59.12-54.36-62.01-1.01,2.66-1.09,5.56-.09,8.41ZM183.02,205.85c-.21,3.08-.08,5.52.7,8.17,19.46-2.28,34.04-17.55,36.9-35.58,2.72-19.53-7.32-37.55-25.39-45.53-23.94-10.48-51.14,3.4-57.78,28.03-6.59,24.65,9.88,49.82,36,53.17.97-2.8.89-5.48.2-8.39-18.17-2.58-30.3-18.83-29.22-36.18,1.61-18.28,16.46-31.83,34.32-31.8,18.17.36,32.81,14.37,33.9,32.18,1.04,17.91-11.68,33.33-29.64,35.94ZM174.11,155.44c.08-3.51,0-5.88-.44-8.5-16.2,3.39-24.36,19.62-19,34.08,5.78,14.32,22.26,20.74,36.23,13.17,12.87-7.14,17.43-24.33,8.46-36.79-4.47-5.15-8.88-9.38-16.18-10.29l-.03,8.22c8.16,2.97,13.24,9.92,12.42,17.82-.19,8.07-6.43,14.24-13.87,15.79-8.2,1.18-16.05-2.72-18.98-10.55-3.69-9.73.8-20.13,11.39-22.94ZM247.98,258.11c12.21-10.14,21.34-21,28.33-34.56-3.28-.34-6.31-.36-9.39-.05-6.43,11.49-14.48,20.15-24.44,28.37,1.53,2.56,3.12,4.59,5.49,6.25Z"/>
      <path class="cls-1" d="M191.2,324.81c-.53-3.31-.61-6.38-.15-8.54,9.13-1.21,16.08-2.43,24.65-4.44l-2.29-7.65-22.78,3.75-.27-8.81c42.87-4.13,80.55-29.2,100.99-67.28,3.34-.19,6.17-.2,9.83.01-16.03,32.83-44.09,57.42-78.73,69.38-.09,2.8.72,5.23,2.5,7.81,38.07-13.03,68.59-40.61,85.28-77.13,3.31-.27,6.15-.29,9.74-.08-22.16,52.56-72.12,88.58-128.76,92.97Z"/>
      <path class="cls-1" d="M100.22,155.15l-43.16,43.42c-15.51,12.25-37.44,9.23-48.88-6.08-11.64-15.32-7.96-37.77,7.82-48.4,16.1-11.12,38.61-6.76,48.68,10.64l35.54.41ZM10.51,176.95c1.62,9.92,8.62,15.48,15.25,18.87,9.49,3.14,18.72,1.76,25.89-3.99l27.86-28.03-19.9-.29c-4.02-11.14-14.86-17.84-26.47-16.82-11.32,1.06-20.62,8.98-22.67,20.96l8.38-.18c2.94-9.04,11.17-13.75,19.7-12.52,8.04,1.83,14.41,9.08,13.89,17.33.26,8.86-6.16,15.17-14.64,16.69-8.31.93-16.35-3.6-18.91-12.47-2.75-.26-5.54-.1-8.38.48ZM43.93,171.93c0-4.69-3.8-8.49-8.49-8.49s-8.49,3.8-8.49,8.49,3.8,8.49,8.49,8.49,8.49-3.8,8.49-8.49Z"/>
      <path class="cls-1" d="M324.08,129.99l34.13,56.6c-.33,5.06-.94,9.5-1.91,13.9l-42.73-70.75-6.7-.63-9.5-8.46,40.96-.09,19.28,31.68c.99,6.27,1.49,12.24,1.15,19l-25.29-41.72c-3-.3-5.41-.39-9.37.48Z"/>
      <path class="cls-1" d="M259.32,322.2c-1.82-2.18-3.3-4.47-4.97-7.29,36.61-19.95,64.39-51.94,77.64-91.64,2.95-.74,6.01-.72,9.32.21-13.65,42.34-42.46,77.17-81.99,98.72Z"/>
      <path class="cls-1" d="M102.13,314.52c-.44,2.79-1.83,5.33-4.37,7.66-37.22-20.21-65.5-52.91-79.84-92.96l10.04,2.09c14.28,35.72,40.2,64.91,74.17,83.21Z"/>
      <path class="cls-1" d="M319.81,196.85l5.43.88,4.45,8.28-25.85.07,23.12-38.06,26.99,44.67c-.68,4.21-1.28,7.57-3.64,11l-23.19-38.62-7.3,11.79Z"/>
      <path class="cls-1" d="M96.85,197.31l-2.56-10.81-4.33,2.71-10.9-.45,22.94-22.94c-.77,14.54,1.69,27.43,7.87,40.38l-47.39-.14c2.92-3.92,5.09-5.89,7.93-8.63l26.43-.11Z"/>
      <path class="cls-1" d="M42.6,223.11c-8.23.4-14.89-.42-22.24-2.07-6.75-2.25-12.47-5.47-17.94-9.98l-2.42-14.38c1.9,1.45,2.97,2.52,4.39,4.31,8.77,9.79,21.43,14.15,34.86,13.36,1.76,2.46,2.72,4.85,3.35,8.75Z"/>
      <path class="cls-1" d="M257.12,205.53l-3.47,6.83-7.16-4.51,6.91-18.32,19.39,16.13c-5.59.85-10.51.56-15.68-.12Z"/>
      <path class="cls-1" d="M281.05,48.18c-1.63-.26-2.85-1.92-2.62-3.37l.27-4.68c-1.6,1.61-1.91,4.69-5.32,3.02l5.19-7.57,2.29-1.72,1.91,2.33-1.34,6.55c3.06-1.69,2.14-5.14,6.29-3.82l-6.67,9.27Z"/>
      <path class="cls-1" d="M142.45,340.1c.04.11-2.1-1.24-2.75-1.76l-1.83-3.17-1.44,3.22-2.4-.42,2.72-10.77,7.27,1.66c.55,2.2.57,3.72-.68,5.53-.7,1.52-.72,2.27-.89,5.7ZM141.48,331.98c0-.86-.69-1.55-1.55-1.55s-1.55.69-1.55,1.55.69,1.55,1.55,1.55,1.55-.69,1.55-1.55Z"/>
      <circle class="cls-1" cx="244.54" cy="218.79" r="4.98"/>
      <circle class="cls-1" cx="319.95" cy="218.8" r="4.95"/>
      <path class="cls-1" d="M112.5,329.09c-3.99.71-6.21-.08-8.29-3.56l3.64-7.96c3.68-.2,5.36.47,7.88,3.22l-3.23,8.29ZM108.84,326.89c3.23-1.82,4.56-4.63,2.23-7.11-2.25,1.4-4.65,4.43-2.23,7.11Z"/>
      <path class="cls-1" d="M215.65,337.72l-4.65,3.6.12-10.1,1.5-2.56,3.06.34,5.06,9.86c-1.92-.12-2.3-.24-5.09-1.14ZM214.51,333.66c-.07-.88-.05-.56.03.36.19,1.89.18,1.77-.03-.36Z"/>
      <path class="cls-1" d="M133.92,331.81l-3.18,5.05-5.65-1.24c-.75-2.31-.81-4.1-.46-6.16,1.09-3.32,2.62-5.34,5.69-4.46,3.42.38,4.11,2.95,3.59,6.81ZM131.63,330.26c-.73-1.49-1.2-2.29-2.32-3.33-1.98,2.8-2.57,4.47-2,7.11,2.74-.22,2.82-1.17,4.33-3.78Z"/>
      <circle class="cls-1" cx="112.49" cy="218.79" r="4.87"/>
      <circle class="cls-1" cx="55.03" cy="218.76" r="4.86"/>
      <path class="cls-1" d="M266.92,38.93l-2.37-6.1-2.14,2-2.01-1.26,5.67-9.02,5.75,3.15c.65,1.93.47,4.38-1.71,5.44l-3.19,5.79ZM269.21,29.91c0-.91-.74-1.64-1.64-1.64s-1.64.74-1.64,1.64.74,1.64,1.64,1.64,1.64-.74,1.64-1.64Z"/>
      <path class="cls-1" d="M172.98,11.39l-2.78-2.84c-1.18,2.6-.91,3.02-3.03,4.19l-.86-11.66,8.14-.21c.33,2.97.28,4.96.09,8l.79,1.11-.11,1.64-2.24-.23ZM172.4,4.59c0-.85-.69-1.53-1.53-1.53s-1.53.69-1.53,1.53.69,1.53,1.53,1.53,1.53-.69,1.53-1.53Z"/>
      <path class="cls-1" d="M240.58,320.51l2.54-1.17,2.62,5.88,1.49,1.59,2-.87-.63-2.46c-1.19-2.24-2.82-4.15-1.23-7.12,2.66,2.45,3.64,5.57,5,9.51l-3.08,3.49-4.96-.53-3.74-8.32Z"/>
      <polygon class="cls-1" points="240.03 330.42 242.01 329.56 242.89 331.14 241.46 332.42 236.29 333.69 232.28 323.38 238.81 320.81 239.56 322.84 237.43 324.31 236.2 325.07 236.66 326.52 238.02 325.62 239.97 325.31 240.81 326.16 239.67 327.8 237.83 328.6 237.81 330.24 240.03 330.42"/>
      <path class="cls-1" d="M155.13,342.92l-4.22-3.45-5.91,1.75,5.09-11.03,3.24.33,1.27,3.21.52,9.18ZM151.47,334.3l-1.18,2.41,1.37.5.5-1.3-.69-1.62Z"/>
      <path class="cls-1" d="M172.3,339.76c-2.86.09-2.91.99-.9,1.51l2.29.18.31,2.25-7.2-.11.33-11.2,7.12.12.24,2.03-2.97.13c-1.62.68-2.15,1.37-.11,1.41l2.69,1.5-1.8,2.18Z"/>
      <polygon class="cls-1" points="251.35 26.86 250.09 28.18 248.76 27.77 249.25 25.5 248.45 22.48 245.69 23.73 244.74 25.49 242.45 24.76 247.2 14.9 249.17 15.55 248.79 17.57 248.57 20.3 251.6 19.92 252.8 17.64 255.19 18.38 251.35 26.86"/>
      <path class="cls-1" d="M190.79,9.51c-.46,3.37-5.53,3.45-7.85,1.28l.3-9.99c2.62-.55,6.16-.12,7.24,1.29l.31,7.42ZM188.13,3.75c0-.7-.57-1.27-1.27-1.27s-1.27.57-1.27,1.27.57,1.27,1.27,1.27,1.27-.57,1.27-1.27ZM188.05,8.56c0-.68-.56-1.24-1.24-1.24s-1.24.56-1.24,1.24.56,1.24,1.24,1.24,1.24-.56,1.24-1.24Z"/>
      <path class="cls-1" d="M233.31,21.45l-4.85-4.16c-2.11,1.07-2.84,1.35-4.96.99l5.27-7.93,3.19-1.77c.8.99,1.45,2.13,2.01,3.45l-.67,9.41ZM230.52,12.04l-1.8,3.01,1.32.79,1.8-3.01-1.32-.79Z"/>
      <path class="cls-1" d="M183.31,337.72l.68,5.09c-2.85,1.7-5.54,2.12-8.05-.36l5.66-1.99-4.91-2.45-.37-4.91c3.28-.98,5.46-1.82,8,.95l-5.59,1.08c.82,1.11,1.27,1.45,4.57,2.6Z"/>
      <polygon class="cls-1" points="203.85 342.07 199.06 331.98 200.14 330.86 202.03 331.77 204.93 337.48 206.28 332.36 206.22 330.27 208.91 329.86 207.46 341.5 203.85 342.07"/>
      <path class="cls-1" d="M122.19,20.88c-2.91,2-4.61,2.88-7.26,3.74l-4.13-10.2c2.69-1.12,4.52-1.68,7.72-2.38l3.67,8.84ZM118.02,21.63c1.58-3.39-.28-6.93-3.37-6.8-.36,2.54.57,5.79,3.37,6.8Z"/>
      <path class="cls-1" d="M286.03,50.69l5.26-.97c.57,1.39-.36,2.53-2.3,4.61-1.85.15-3.99-1.42-5.31-3.22-.51-2.42.57-4.25,2.3-6.37,1.69-1.39,3.08-2.1,5.36-2.24,1.75.97,2.98,2.01,3.73,4.71-1.84-.09-2.53-.42-4.06-1.36-1.98-.34-4.04,1.48-4.99,4.84Z"/>
      <path class="cls-1" d="M258.83,27.88l-2.03-.38-.69,1.55,1.97.99,1.26,1.49-1.31,1.29-5.81-3.28,5.3-9.49c2.58.81,4.04,1.52,6.43,3.5l-3.13.98-1.84-.83-.44,1.17,1.29.76,1.35,1.21-.46,1.32-1.91-.29Z"/>
      <path class="cls-1" d="M201.65,13.71l-4.46-3.16-5.11,1.9,2.93-8.75,1.75-2.22,3.42.92,1.46,11.29ZM198.62,8.2l-1.25-3.07-1.24,2.81,2.49.26Z"/>
      <path class="cls-1" d="M122.33,333.33c-4.23.56-5.85-.51-9.14-2.81l7.68-5.95c-1.22-.79-2.16-1.45-3.73-3.14,3.81-.11,5.15.73,8.48,2.8-2.75,2.39-4.92,3.97-7.79,5.92,1.31.77,2.65,1.62,4.5,3.18Z"/>
      <path class="cls-1" d="M97.39,33.41l-4.91-8.3.3-2.16,2.22,1.09c1.11,1.24,1.69,1.75,2.32,2.07,1.07-1.15,1.35-2.17,1.31-3.23l-.69-1.96,1.34-.97,1.23,1.4,4.02,7.57-1.35,1.46-1.22-1.68-2.65-1.79-1.37,2.91.99,2.54-1.56,1.04Z"/>
      <path class="cls-1" d="M162.01,336.59l2.47.19.29,1.58-2.06.43-1.95.03-.49,2.55-1.1,1.54-1.74-.98,1.17-10.54c3.17.15,4.64.31,7.79,1.27-1.84,1.38-2.36,1.57-3.46,1.95l-1.95.53,1.03,1.45Z"/>
      <path class="cls-1" d="M110.34,23.95l2.6,1.23c-2.64,1.52-4.01,2.2-6.18,3.06l-4.78-9.96,6.06-2.73.85,1.36-1.43,1.45-1.52.53-.32,1.22,1.99.43,1.71-.65,1.19.88-1.3,1.73-1.27.85.5,1.72,1.9-1.11Z"/>
      <path class="cls-1" d="M125.63,17.64l5.31-.06c-1.5,2.16-3.74,2.81-6.59,3.04l-3.58-10,6.86-2.41c-.2,1.95-.76,2.4-1.76,3.15l-1.43.61.31,1.09,1.73-.11,1.45-.33,1.01,1.04-1.9,1.15-1.41,2.83Z"/>
      <path class="cls-1" d="M222.76,11.65l.3,4.31c-1.17.86-2.53,1.2-4.32,1.41l-3.43-2.52.08-4.46c.96-2.1,1.97-3.92,3.11-4.9,2.75.14,4.98.68,5.83,2.03l-5.79,1.76c-.38,2.48-.54,3.64.04,6.17l4.19-3.8Z"/>
      <path class="cls-1" d="M67.3,56.44l-6.73-6.37c-.13-1.48.28-2.93,1.13-4.52l4.7-1.7,3.42,4.01-2.65,4.61,1.25,2.3-1.13,1.67ZM66.96,48.64c0-.9-.73-1.64-1.64-1.64s-1.64.73-1.64,1.64.73,1.64,1.64,1.64,1.64-.73,1.64-1.64Z"/>
      <path class="cls-1" d="M188.2,342.05l-.17-6.9c-2.14-.61-2.65-.58-3.77-2.56l9.82-.55c-2.86,3.7-3.84,5.05-2.43,9.39l-1.55,2.57-1.89-1.95Z"/>
      <path class="cls-1" d="M77.05,48.66l-2.44.53-1.03-1.09,1.74-1.25,1.38-1.67-2.09-1.01c-2.4,1.05-4.11.58-5.42-1.02-1.34-1.91-.1-3.96,1.97-5.24l1.26-.83,1.29.96-1.12,1.92-1.17,1.03.18,1.35,2.37-.38c1.71-.38,3.47.02,5.05,1.36.24,1.66-.69,3.62-1.99,5.35Z"/>
      <path class="cls-1" d="M239.03,21.86l-1.74,1.23-.9-2.24,2.32-6.36-1.99-1.9.96-2.06,7.61,3.57c-.64,1.37-1.33,1.47-3.63,1.53l-2.63,6.23Z"/>
      <path class="cls-1" d="M224.5,334.37c2.69.23,3.08.12,5.8.95-3.1,1.77-4.39,2.08-7.37,2.84l-2.98-9.3.48-2.28,2.37.98,1.7,6.81Z"/>
      <path class="cls-1" d="M147.7,12.03l5.26.2c-1.76,2.2-3.09,2.33-5.45,2.5-1.39-1.45-2.32-3.17-3.43-5.57l1.53-5.68c2.41-.34,3.77-1.24,6.08.59l-4.43,1.85.44,6.12Z"/>
      <path class="cls-1" d="M74.9,34.98c1.44-.75,3.25-.35,4.54.65l1.84.34-.22-1.89c-1.09-1.31-1.1-2.86.97-3.91l2.48,8.73,1.12,1.71-1.3,1.39-9.42-7.01Z"/>
      <path class="cls-1" d="M87.3,31.1l3.28,3.65,4.87-1.27c-.89,1.69-2.24,2.92-3.72,3.86-2.5-.49-3.88-1.65-5.43-3.57-1.08-2.07-1.7-3.84-.83-6.29,1.19-.93,3.68-2.05,4.74-1.21-1.61,2.21-2.6,3.71-2.9,4.84Z"/>
      <path class="cls-1" d="M161.69,12.36c-1.9-.17-2.36-2.09-2.28-4.04l-.21-3.46-3.91-2.17,6.7-1.81,1.6.41.66,1.53-2.24,1.01-.32,8.53Z"/>
      <path class="cls-1" d="M206.18,11.55l5.06,1.42c-2.23,3.36-5.28,1.14-7.52.08l1.16-9.26,1.62-1.43,1.39,1.6-1.7,7.59Z"/>
      <path class="cls-1" d="M139.22,15.67c-1.72,1.06-4.24,2.02-6.28,2.51l-2.9-9.91,2.06-1.75,2.47,7.7,4.64,1.45Z"/>
      <polygon class="cls-1" points="198.93 341.12 197.59 343.02 195.83 341.63 195.19 334.12 195.07 332.13 197.52 331.51 198.93 341.12"/>
      <polygon class="cls-1" points="271.96 41.11 270.05 40.49 270.13 38.72 274.82 32.03 276.63 31.11 277.68 32.63 271.96 41.11"/>
      <rect class="cls-1" x="139.91" y="4.8" width="2.77" height="10.95" transform="translate(1.68 34.32) rotate(-13.93)"/>
      <path class="cls-1" d="M180.64,11.11l-1.79.41-.91-1.53c.08-3.46.01-6.46,1.17-10,2.74,3.84,1.22,6.7,1.53,11.11Z"/>
      <circle class="cls-1" cx="232.2" cy="333.77" r="1.51"/>
    </g>
  </g>
</svg>